<?xml version="1.0" standalone="no"?>
<!DOCTYPE svg PUBLIC "-//W3C//DTD SVG 20010904//EN"
 "http://www.w3.org/TR/2001/REC-SVG-20010904/DTD/svg10.dtd">
<svg version="1.0" xmlns="http://www.w3.org/2000/svg"
 width="1280.000000pt" height="1280.000000pt" viewBox="0 0 1280.000000 1280.000000"
 preserveAspectRatio="xMidYMid meet">
<metadata>
Created by potrace 1.15, written by Peter Selinger 2001-2017
</metadata>
<g transform="translate(0.000000,1280.000000) scale(0.100000,-0.100000)"
fill="#000000" stroke="none">
<path d="M6396 12770 c-3 -14 -26 -118 -51 -232 -51 -237 -56 -251 -118 -334
-106 -143 -281 -266 -772 -539 -372 -207 -483 -280 -592 -387 -35 -33 -76 -81
-92 -107 -57 -88 -131 -356 -131 -472 l0 -39 -69 57 c-84 71 -200 141 -307
185 -78 33 -81 33 -229 32 -192 -1 -205 -4 -845 -184 -467 -132 -731 -159
-884 -92 -23 11 -127 74 -230 141 -104 67 -190 121 -191 119 -1 -2 53 -88 121
-193 167 -257 169 -261 168 -455 -1 -193 -27 -328 -143 -735 -143 -501 -166
-611 -166 -780 0 -134 5 -155 72 -288 50 -102 110 -193 166 -254 l38 -42 -48
-6 c-185 -22 -314 -55 -423 -107 -141 -68 -280 -249 -515 -673 -257 -463 -368
-630 -507 -761 -42 -40 -99 -82 -129 -96 -32 -15 -149 -46 -282 -74 -140 -30
-221 -51 -210 -56 10 -3 115 -27 233 -52 255 -55 295 -72 401 -176 134 -132
226 -271 471 -710 241 -431 360 -598 492 -686 80 -54 292 -117 437 -130 l77
-7 -57 -67 c-69 -83 -139 -200 -183 -306 -32 -77 -33 -82 -33 -224 1 -164 13
-231 95 -529 27 -97 75 -266 105 -376 118 -422 141 -682 76 -830 -10 -23 -73
-126 -140 -229 -67 -104 -121 -190 -119 -191 2 -1 89 53 193 121 257 167 262
169 455 168 190 -1 326 -27 705 -134 539 -153 633 -174 805 -174 140 -1 159 4
293 71 102 50 193 110 254 166 l42 38 6 -48 c15 -125 27 -186 50 -269 80 -274
176 -360 780 -697 138 -76 295 -167 350 -200 228 -140 407 -300 458 -408 14
-31 45 -149 73 -281 27 -125 50 -225 52 -223 2 2 26 106 53 232 32 150 59 247
77 282 34 68 150 188 260 269 116 86 226 152 552 335 157 87 335 192 397 232
123 81 246 192 292 263 57 89 131 356 131 474 l0 39 58 -49 c78 -67 139 -107
241 -157 136 -68 184 -78 330 -73 151 6 255 29 646 139 350 100 442 123 580
148 222 39 379 37 480 -8 23 -10 126 -73 229 -140 104 -67 190 -121 191 -119
1 2 -53 89 -121 193 -151 231 -165 265 -172 405 -8 186 26 362 167 857 126
444 157 604 148 753 -3 47 -13 104 -21 128 -41 113 -153 302 -226 379 l-30 32
32 5 c18 3 60 8 93 11 139 15 334 81 417 142 103 75 224 240 381 518 46 83
126 224 177 315 148 264 250 411 365 526 70 71 117 109 155 127 33 15 146 45
282 74 125 26 225 49 223 51 -2 2 -106 26 -232 53 -149 32 -247 59 -283 77
-73 36 -198 162 -287 287 -87 124 -151 230 -332 555 -228 408 -345 569 -476
656 -93 61 -352 134 -477 134 l-39 0 49 58 c67 78 103 133 155 238 70 139 81
186 74 334 -5 138 -29 257 -104 522 -164 585 -194 715 -208 903 -8 102 6 217
34 280 10 23 73 126 140 229 67 104 121 190 119 191 -2 1 -88 -53 -193 -121
-257 -167 -262 -169 -455 -168 -193 1 -325 26 -740 144 -507 144 -606 165
-775 165 -134 0 -155 -5 -288 -72 -102 -50 -193 -110 -254 -166 l-42 -38 -5
43 c-3 24 -8 66 -11 93 -17 136 -83 328 -141 407 -87 117 -260 238 -663 463
-310 173 -445 254 -562 341 -113 84 -229 206 -261 275 -15 31 -45 147 -72 274
-55 259 -52 247 -60 215z m106 -773 c156 -156 291 -247 723 -487 608 -338 664
-391 725 -689 42 -205 15 -403 -83 -623 l-25 -56 -164 54 c-424 142 -825 207
-1278 207 -342 0 -642 -35 -955 -113 -131 -32 -396 -114 -466 -144 -13 -6 -24
10 -53 81 -114 271 -120 506 -20 771 55 147 146 217 669 509 286 160 413 236
504 301 107 76 234 186 276 240 22 28 41 51 42 52 1 0 49 -46 105 -103z
m-2295 -1284 c185 -78 344 -217 452 -396 39 -63 111 -224 111 -246 0 -6 -51
-34 -112 -64 -794 -378 -1475 -1057 -1861 -1854 -32 -68 -60 -123 -61 -123 -1
0 -42 16 -90 35 -146 59 -285 152 -373 249 -64 71 -147 201 -184 287 -30 71
-31 77 -27 184 6 132 32 252 134 608 147 515 177 667 178 892 l1 150 137 -3
c212 -5 402 33 908 178 510 146 642 164 787 103z m4757 2 c66 -13 249 -61 406
-105 534 -152 689 -183 915 -184 l150 -1 1 -175 c0 -156 4 -191 32 -325 17
-82 59 -249 93 -370 118 -420 137 -491 159 -595 13 -61 22 -145 23 -200 1 -82
-2 -104 -26 -159 -79 -188 -232 -363 -405 -464 -59 -34 -223 -107 -241 -107
-6 0 -34 51 -64 113 -380 797 -1068 1485 -1865 1865 -78 37 -112 58 -108 67
127 332 291 516 566 636 86 38 194 39 364 4z m-2139 -529 c882 -107 1646 -477
2265 -1096 630 -630 1002 -1411 1102 -2315 17 -156 17 -594 0 -750 -86 -779
-376 -1468 -866 -2062 -114 -137 -349 -372 -489 -488 -522 -433 -1143 -719
-1799 -829 -239 -41 -370 -51 -638 -51 -268 0 -399 10 -638 51 -1375 231
-2531 1220 -2972 2544 -93 277 -149 535 -182 835 -17 156 -17 594 0 750 100
904 472 1686 1102 2315 652 653 1464 1027 2405 1110 143 12 557 4 710 -14z
m-4501 -2231 c93 -16 175 -42 273 -86 l61 -27 -50 -149 c-145 -430 -210 -832
-210 -1293 0 -363 36 -661 122 -995 32 -125 107 -363 134 -426 6 -13 -10 -24
-81 -53 -238 -100 -452 -116 -678 -51 -127 37 -173 61 -231 121 -88 90 -162
205 -356 554 -276 495 -415 693 -577 824 l-33 27 86 80 c149 140 266 312 506
744 285 513 370 624 522 679 170 62 347 80 512 51z m8505 -12 c101 -20 222
-65 266 -99 21 -15 65 -64 99 -108 91 -118 141 -200 321 -526 248 -447 397
-658 553 -783 l33 -27 -86 -81 c-144 -137 -268 -317 -475 -689 -316 -569 -397
-677 -549 -733 -263 -98 -520 -86 -795 37 -47 21 -57 29 -51 43 4 10 27 77 52
148 276 805 276 1745 0 2550 -24 72 -48 137 -51 146 -6 13 10 24 81 53 217 91
393 111 602 69z m-8016 -3325 c394 -793 1059 -1451 1845 -1826 78 -37 112 -58
108 -67 -62 -163 -122 -272 -203 -370 -87 -106 -233 -212 -370 -269 -128 -53
-283 -32 -763 104 -543 154 -692 184 -920 184 l-145 0 -1 176 c0 156 -4 191
-32 325 -17 83 -59 249 -93 370 -118 420 -137 491 -159 595 -13 61 -23 145
-23 200 -1 86 2 102 30 167 63 146 202 323 316 402 97 66 284 159 323 161 6 0
46 -69 87 -152z m7340 117 c265 -107 457 -293 562 -545 26 -61 27 -72 23 -175
-6 -133 -32 -252 -134 -608 -147 -512 -178 -671 -178 -897 l0 -145 -176 -1
c-156 0 -191 -4 -325 -32 -82 -17 -249 -59 -370 -93 -420 -118 -491 -137 -595
-159 -61 -13 -145 -23 -200 -23 -85 -1 -102 2 -165 29 -190 82 -346 218 -454
397 -39 63 -111 224 -111 246 0 6 51 34 113 64 537 256 1040 663 1421 1150
157 201 343 502 448 723 26 57 50 104 51 104 2 0 42 -16 90 -35z m-4748 -2215
c652 -167 1338 -167 1990 0 124 32 360 106 426 134 13 6 24 -10 53 -81 113
-268 119 -508 21 -770 -32 -84 -63 -123 -159 -197 -102 -79 -211 -146 -485
-298 -304 -168 -456 -261 -578 -352 -103 -76 -207 -172 -250 -229 l-21 -27
-104 103 c-157 158 -283 242 -750 503 -470 261 -599 361 -651 502 -62 169 -81
351 -52 514 15 86 62 232 96 300 l18 36 148 -50 c82 -27 216 -67 298 -88z"/>
<path d="M6280 9561 c-58 -9 -118 -24 -135 -33 -16 -9 -43 -23 -60 -31 -16 -8
-36 -21 -44 -30 -7 -10 -19 -17 -25 -17 -15 0 -126 -104 -126 -118 0 -6 -20
-20 -45 -32 -25 -12 -45 -26 -45 -30 0 -5 -12 -15 -27 -22 -15 -7 -33 -23 -39
-36 -6 -13 -26 -37 -43 -54 -17 -17 -31 -40 -31 -52 0 -11 -8 -34 -17 -51 -33
-61 -32 -260 3 -365 17 -50 24 -91 22 -123 -3 -44 5 -63 15 -34 7 23 37 -13
43 -54 5 -32 9 -37 20 -28 15 12 19 75 6 83 -8 5 -8 133 0 141 2 3 3 41 2 85
-1 44 1 82 6 85 5 3 5 17 -1 32 -7 18 -6 30 1 37 5 5 10 19 10 31 0 11 9 31
20 45 11 14 20 30 20 37 0 6 14 16 30 22 17 5 30 14 30 19 0 13 56 25 165 35
17 2 42 9 56 16 19 9 32 10 46 3 15 -8 27 -7 49 4 19 10 35 12 49 6 11 -5 33
-5 48 -1 17 5 39 3 52 -3 18 -8 32 -7 55 2 24 10 33 10 46 -1 12 -10 22 -10
49 0 26 9 40 9 55 1 16 -8 30 -9 53 -1 21 8 34 8 41 1 14 -14 49 -13 64 2 9 9
19 7 45 -7 25 -13 38 -15 53 -7 14 7 24 6 39 -4 10 -8 29 -14 42 -14 26 0 133
-69 133 -86 0 -6 6 -17 14 -23 18 -15 27 -59 30 -156 5 -122 17 -268 23 -277
2 -5 -1 -16 -8 -25 -14 -16 -13 -72 0 -86 5 -5 13 12 20 37 13 52 25 63 48 44
15 -12 16 -7 11 49 -3 33 -2 65 3 70 19 19 41 132 40 208 0 44 -1 101 -1 126
0 29 -6 52 -15 59 -8 7 -15 24 -15 39 0 29 -34 91 -50 91 -6 0 -18 16 -26 35
-9 22 -23 37 -39 41 -13 3 -27 15 -30 25 -4 10 -15 19 -25 19 -11 0 -56 36
-100 80 -44 44 -87 80 -95 80 -8 0 -20 8 -27 19 -25 35 -137 77 -253 95 -60 9
-114 16 -120 15 -5 -1 -57 -9 -115 -18z"/>
<path d="M6390 8950 c-11 -11 -20 -28 -20 -38 0 -24 31 -52 57 -52 23 0 53 30
53 53 0 21 -35 57 -55 57 -8 0 -24 -9 -35 -20z"/>
<path d="M6035 8837 c-55 -19 -95 -41 -127 -72 -38 -35 -35 -41 5 -11 73 55
194 83 281 64 62 -13 95 -29 141 -69 41 -37 45 -29 9 18 -40 52 -96 76 -189
80 -48 2 -96 -2 -120 -10z"/>
<path d="M6600 8835 c-45 -14 -101 -60 -122 -98 -7 -14 1 -11 28 11 120 96
279 100 419 11 48 -30 49 -30 25 -5 -13 15 -53 41 -88 58 -76 38 -187 47 -262
23z"/>
<path d="M5941 8640 c8 -4 68 -13 134 -19 157 -16 162 -17 192 -49 l26 -27 -7
30 c-14 58 -26 62 -200 68 -88 2 -153 1 -145 -3z"/>
<path d="M6703 8643 c-142 -4 -147 -6 -163 -63 l-9 -31 32 28 c30 27 43 30
167 42 126 12 224 32 140 28 -19 -1 -94 -3 -167 -4z"/>
<path d="M5674 8499 c-19 -31 27 -298 71 -414 25 -66 27 -76 20 -177 -4 -59
-4 -116 0 -126 7 -25 57 -46 84 -37 28 9 47 48 55 116 5 48 3 59 -14 74 -11
10 -20 24 -20 31 0 7 -6 17 -12 21 -12 8 -78 135 -78 151 0 4 13 -16 29 -43
49 -87 58 -78 14 13 -23 48 -51 121 -63 162 l-20 75 5 -55 c5 -41 3 -52 -5
-44 -6 6 -14 62 -17 125 -5 106 -13 139 -34 139 -4 0 -11 -5 -15 -11z m95
-314 c0 -5 -4 -3 -9 5 -5 8 -9 22 -9 30 0 16 17 -16 18 -35z"/>
<path d="M7113 8498 c-6 -7 -13 -58 -17 -114 -6 -108 -31 -195 -85 -301 -17
-34 -31 -69 -31 -77 0 -7 -7 -16 -15 -20 -8 -3 -15 -12 -15 -19 0 -8 -9 -22
-20 -32 -30 -28 -20 -135 16 -176 13 -15 10 -17 -27 -23 -23 -4 -44 -4 -48 0
-3 3 -5 38 -4 77 2 51 8 79 21 97 49 67 29 72 -68 18 -92 -52 -233 -97 -337
-107 -165 -17 -363 23 -510 103 -77 41 -82 32 -10 -18 116 -79 260 -118 442
-118 179 -1 300 37 435 134 l55 39 -40 -36 c-38 -34 -40 -39 -43 -107 -3 -50
-1 -69 7 -64 7 5 11 -2 11 -18 0 -27 3 -28 82 -41 63 -10 68 -22 63 -143 -2
-58 -1 -109 3 -112 11 -7 43 -365 49 -555 9 -242 -21 -650 -55 -770 -9 -30 -9
-30 -78 -29 -106 2 -254 47 -344 105 l-35 23 20 -23 c47 -54 161 -102 313
-131 52 -10 95 -20 97 -22 8 -8 -67 -166 -103 -218 -83 -118 -156 -149 -367
-157 -113 -4 -164 -1 -265 16 -69 11 -135 24 -147 27 -13 4 -23 2 -23 -4 0
-10 60 -38 73 -34 5 1 6 -2 3 -7 -14 -21 191 -79 314 -88 138 -9 284 37 385
122 26 23 21 22 -40 -9 -88 -44 -166 -65 -276 -73 -93 -6 -253 10 -322 33 -41
13 -41 13 -7 9 292 -38 450 -31 561 26 74 37 153 128 203 232 87 178 119 399
120 832 0 212 -4 311 -17 407 -20 150 -20 151 -5 142 8 -5 9 -2 3 12 -7 16
-12 84 -26 376 -2 52 0 59 25 79 l27 22 -6 121 c-6 117 -6 123 23 201 16 44
35 105 41 135 14 71 30 241 24 257 -6 16 -18 17 -30 1z"/>
<path d="M6276 8369 c-14 -11 -26 -30 -26 -42 1 -18 3 -17 14 9 8 19 26 36 43
42 15 6 21 11 12 11 -9 1 -28 -8 -43 -20z"/>
<path d="M6560 8375 c14 -7 30 -26 37 -42 11 -25 12 -26 13 -5 0 26 -33 62
-57 62 -14 -1 -12 -4 7 -15z"/>
<path d="M7051 8275 c-13 -47 -40 -122 -62 -167 -27 -56 -32 -75 -18 -58 45
53 87 162 104 268 11 68 0 49 -24 -43z"/>
<path d="M6302 8293 c-23 -9 -1 -23 36 -23 21 0 32 4 27 9 -14 12 -48 20 -63
14z"/>
<path d="M6490 8287 l-25 -11 28 -4 c16 -2 36 -1 45 3 14 5 14 7 2 15 -18 12
-19 12 -50 -3z"/>
<path d="M6300 8175 c-19 -7 -50 -10 -67 -8 -49 8 -40 -10 17 -37 28 -13 56
-30 62 -37 7 -9 40 -13 110 -13 82 0 105 3 126 19 15 10 44 26 65 34 20 9 37
21 37 27 0 6 -16 10 -37 9 -21 -1 -59 4 -85 11 -40 12 -51 12 -72 0 -20 -10
-31 -11 -51 -2 -31 15 -59 14 -105 -3z"/>
<path d="M6543 8069 c-7 -7 -52 -10 -126 -7 -91 2 -113 0 -105 -9 7 -9 44 -13
119 -13 98 0 109 2 119 20 12 22 9 25 -7 9z"/>
<path d="M5919 7870 c-1 -19 -1 -64 1 -100 3 -74 26 -116 104 -188 54 -50 73
-56 30 -9 -17 17 -39 45 -50 61 -10 16 -27 40 -37 55 -12 17 -17 39 -14 66 2
22 -5 65 -14 95 -17 53 -18 54 -20 20z"/>
<path d="M5985 7798 c25 -68 76 -122 107 -112 9 3 27 0 38 -6 45 -24 27 -2
-35 44 -110 81 -118 138 -8 62 27 -18 67 -42 88 -53 47 -24 105 -39 90 -25
-13 13 -254 138 -281 146 l-22 7 23 -63z"/>
<path d="M6715 7782 c-33 -14 -91 -33 -130 -43 -38 -10 -59 -18 -45 -18 30 -1
128 15 153 24 12 5 17 2 17 -9 0 -22 9 -20 37 6 l23 21 0 -32 c0 -19 4 -30 10
-26 11 7 14 106 3 104 -5 -1 -35 -13 -68 -27z"/>
<path d="M5725 7751 c-3 -5 -31 -17 -63 -25 -80 -22 -155 -48 -167 -57 -6 -4
-69 -20 -140 -34 -293 -62 -496 -165 -658 -334 -157 -165 -209 -323 -237 -731
-12 -170 -12 -827 0 -790 6 20 8 15 9 -25 1 -67 28 -238 46 -303 22 -74 44
-94 98 -86 51 7 287 63 304 72 6 4 -32 7 -86 7 -92 0 -102 2 -167 35 -65 33
-71 39 -101 100 -41 84 -82 281 -90 431 -7 133 0 189 24 189 13 0 15 8 10 48
-4 26 -9 70 -12 97 l-5 50 19 -38 c25 -52 45 -72 32 -32 -17 49 -31 215 -31
354 0 105 3 130 15 135 10 4 15 19 15 49 0 24 4 47 9 53 4 5 14 38 21 74 6 36
23 89 37 118 32 67 124 183 193 244 60 52 228 143 339 182 l74 27 -17 -25
c-24 -38 -19 -43 12 -14 39 38 126 76 191 84 31 3 79 17 107 30 72 34 151 32
181 -5 l22 -26 1 39 c0 22 6 47 14 55 19 22 30 61 17 61 -5 0 -12 -4 -16 -9z"/>
<path d="M5767 7588 c-4 -84 -10 -344 -13 -578 -12 -777 29 -1018 210 -1228
l46 -54 0 32 c0 23 -11 45 -41 78 -39 44 -109 171 -109 198 0 7 26 13 68 16
110 9 239 66 332 148 31 27 29 26 -28 -9 -95 -60 -204 -102 -280 -108 -104 -8
-114 -1 -135 99 -32 156 -39 308 -35 743 l4 420 28 44 c28 43 27 52 -7 63 -4
2 -1 17 7 33 8 17 18 64 22 105 l7 75 -21 -19 c-21 -18 -21 -18 -27 7 -8 31 2
50 21 43 8 -3 14 1 14 10 0 8 -5 12 -10 9 -6 -3 -13 1 -16 9 -3 9 -12 16 -19
16 -9 0 -14 -42 -18 -152z"/>
<path d="M7083 7661 c29 -41 44 -55 47 -44 4 11 10 7 20 -14 l14 -28 4 28 c4
33 12 34 42 2 26 -27 45 -33 37 -11 -11 28 41 14 74 -20 23 -24 36 -31 45 -24
8 7 13 6 17 -5 4 -8 12 -12 20 -9 8 3 18 -6 26 -22 6 -15 14 -24 18 -21 3 4
14 2 24 -3 13 -8 18 -6 21 8 3 13 10 8 27 -20 27 -45 34 -48 25 -10 l-7 27 35
-32 c38 -37 50 -41 42 -15 -3 9 7 2 22 -16 23 -28 28 -30 38 -16 10 14 17 10
54 -30 24 -26 47 -44 52 -41 5 3 18 -9 31 -26 12 -17 24 -27 28 -22 12 17 53
9 68 -14 9 -13 20 -23 25 -23 5 0 16 -7 25 -15 8 -8 18 -13 22 -11 4 3 18 -15
31 -40 27 -48 32 -51 50 -29 10 12 10 18 -1 33 -118 154 -244 246 -439 319
-36 14 -69 28 -75 33 -5 4 -28 12 -50 16 -22 4 -51 15 -64 25 -13 11 -36 19
-51 19 -15 0 -39 9 -53 20 -14 11 -35 20 -48 20 -12 0 -30 6 -38 14 -13 11
-168 56 -194 56 -4 0 12 -27 36 -59z"/>
<path d="M6104 7665 c11 -8 24 -15 30 -15 5 0 1 7 -10 15 -10 8 -23 14 -29 14
-5 0 -1 -6 9 -14z"/>
<path d="M5511 7252 c-2 -529 41 -885 137 -1134 63 -163 195 -350 320 -454 82
-68 241 -147 342 -169 111 -24 276 -22 392 7 l93 23 -230 6 c-204 5 -241 9
-328 32 -122 33 -204 76 -285 151 -111 104 -239 322 -287 491 -69 240 -132
788 -136 1170 -1 66 -5 131 -9 145 -4 14 -8 -106 -9 -268z"/>
<path d="M7262 7118 c-36 -649 -121 -1056 -260 -1247 -86 -118 -184 -207 -295
-268 -75 -41 -36 -33 45 9 128 67 269 219 354 381 89 170 153 591 170 1125 4
122 5 222 2 222 -2 0 -10 -100 -16 -222z"/>
<path d="M5323 6950 c16 -581 128 -1274 252 -1554 31 -70 27 -84 -8 -24 -104
177 -211 637 -276 1183 -38 320 -40 328 -36 135 8 -305 103 -894 190 -1168 26
-81 27 -101 6 -88 -29 19 -97 290 -149 604 -16 95 -33 176 -37 180 -9 9 2
-125 21 -243 16 -105 18 -155 4 -155 -32 0 -66 335 -89 883 -5 115 -12 211
-15 215 -10 9 -7 -418 4 -603 22 -375 85 -696 163 -824 l20 -34 -29 6 c-16 4
-65 9 -109 12 l-80 5 93 -20 c68 -15 128 -38 224 -86 71 -36 154 -76 184 -89
l54 -24 -24 42 c-27 46 -91 217 -137 365 -75 242 -155 765 -204 1331 -8 96
-18 177 -21 180 -4 3 -4 -100 -1 -229z"/>
<path d="M8124 7105 c3 -11 17 -58 31 -105 51 -167 86 -395 101 -670 10 -179
20 -186 28 -19 15 315 -37 618 -130 760 -20 30 -33 45 -30 34z"/>
<path d="M5432 6945 c-4 -523 65 -1059 178 -1380 44 -124 124 -276 173 -331
l42 -45 115 3 c73 2 108 6 95 11 -11 5 -38 16 -60 25 -22 9 -70 47 -107 84
-117 116 -211 344 -257 623 -11 66 -24 145 -29 175 l-9 55 -1 -45 c-2 -70 24
-245 53 -355 42 -162 135 -386 202 -486 33 -50 25 -73 -9 -28 -86 112 -155
273 -212 489 -82 313 -126 648 -165 1245 l-8 130 -1 -170z"/>
<path d="M7446 6988 c-37 -598 -148 -1041 -332 -1320 -101 -152 -282 -277
-454 -315 -114 -25 -361 -22 -463 5 -234 63 -426 243 -523 490 -15 39 -29 70
-31 68 -8 -7 42 -147 78 -219 103 -205 262 -339 469 -394 101 -28 357 -24 469
6 160 42 282 112 383 218 200 210 339 593 392 1078 16 146 33 495 24 495 -3 0
-8 -51 -12 -112z"/>
<path d="M7536 6963 c-3 -15 -13 -73 -22 -128 -50 -322 -123 -649 -189 -852
-108 -328 -285 -565 -498 -667 -120 -58 -197 -76 -338 -83 -191 -9 -374 30
-505 108 -59 35 -165 132 -202 184 l-21 30 9 -33 c23 -84 92 -163 226 -258
110 -79 94 -76 522 -82 l384 -5 90 89 c81 80 158 175 186 229 6 12 -26 -16
-71 -60 -48 -48 -109 -97 -147 -118 -101 -56 -113 -55 -30 1 172 116 279 276
380 567 119 346 201 699 230 994 10 101 8 142 -4 84z"/>
<path d="M4706 6735 c9 -364 48 -688 100 -845 49 -145 134 -258 245 -325 76
-47 88 -44 34 6 -57 52 -117 148 -194 309 -94 197 -129 380 -181 945 -7 83 -8
69 -4 -90z"/>
<path d="M7620 6903 c0 -6 -9 -100 -20 -209 -11 -110 -24 -248 -30 -309 -5
-60 -21 -231 -35 -378 -14 -148 -25 -283 -24 -300 0 -30 1 -30 15 13 23 71 53
270 69 455 17 197 39 724 31 733 -3 3 -6 1 -6 -5z"/>
<path d="M7937 6795 c-86 -855 -122 -990 -328 -1239 -88 -106 -105 -121 -219
-187 -69 -40 -91 -49 -117 -44 -26 5 -38 -1 -78 -35 -40 -35 -65 -49 -65 -36
0 2 29 66 64 142 83 183 140 339 181 499 48 189 52 243 6 80 -75 -262 -165
-498 -234 -612 -45 -74 -87 -116 -148 -150 -27 -14 -49 -30 -49 -35 0 -18 64
-6 120 22 33 17 66 30 73 30 8 0 35 11 61 25 26 14 58 25 70 25 13 0 63 25
111 55 131 82 176 96 340 104 159 9 173 14 259 92 107 97 145 209 151 444 l4
150 -14 -75 c-45 -230 -108 -382 -198 -473 -72 -74 -117 -95 -245 -112 -59 -9
-120 -20 -137 -25 -29 -9 -28 -8 10 22 128 104 223 215 280 327 59 118 87 316
106 741 12 280 10 405 -4 265z"/>
<path d="M5041 6834 c-1 -39 36 -574 50 -712 12 -122 22 -181 49 -280 19 -69
89 -236 96 -229 2 2 -4 25 -12 52 -34 112 -95 456 -123 700 -17 143 -37 314
-45 380 -7 66 -14 106 -15 89z"/>
<path d="M4831 6815 c-1 -53 25 -349 45 -500 20 -160 57 -345 84 -425 52 -154
161 -302 273 -371 l52 -32 -36 39 c-47 53 -88 113 -137 204 -96 178 -132 309
-216 780 -25 140 -50 275 -55 300 l-9 45 -1 -40z"/>
<path d="M8100 6814 c0 -5 -16 -142 -35 -304 -57 -471 -82 -592 -154 -730 -51
-98 -118 -179 -194 -236 -36 -26 -64 -50 -62 -53 9 -8 133 59 183 99 61 49
131 139 167 216 60 126 75 249 95 753 5 140 8 257 5 259 -3 3 -5 1 -5 -4z"/>
<path d="M7727 6465 c-21 -207 -59 -477 -78 -544 -27 -101 -99 -275 -164 -398
-30 -57 -52 -103 -50 -103 3 0 31 35 63 78 104 141 176 301 206 462 18 95 39
397 34 505 l-3 80 -8 -80z"/>
<path d="M4616 6375 c11 -231 61 -522 106 -614 31 -64 107 -135 189 -176 38
-19 72 -35 76 -35 5 0 -23 33 -62 73 -166 173 -226 311 -276 636 -31 206 -39
234 -33 116z"/>
<path d="M7201 6209 c-41 -165 -143 -365 -243 -474 -57 -63 -152 -134 -219
-165 -44 -20 -44 -20 -9 -14 152 24 310 186 403 414 40 95 90 265 85 281 -2 6
-10 -13 -17 -42z"/>
<path d="M5621 6130 c-2 -35 52 -217 88 -299 77 -179 197 -321 331 -390 74
-39 191 -76 213 -68 7 2 -4 7 -23 12 -19 4 -62 20 -94 36 -205 101 -368 312
-477 619 -21 58 -38 98 -38 90z"/>
<path d="M4551 6035 c-2 -183 46 -405 104 -481 46 -61 101 -79 235 -79 63 0
129 4 145 9 29 9 29 9 -19 17 -81 13 -172 65 -249 141 -67 67 -69 68 -62 36
l7 -33 -21 20 c-28 27 -65 138 -100 298 -16 72 -32 141 -34 152 -3 11 -5 -25
-6 -80z"/>
<path d="M8250 5964 c0 -34 -63 -232 -96 -300 -38 -82 -100 -144 -188 -190
-43 -22 -52 -30 -38 -36 56 -22 171 11 219 63 33 36 70 125 88 209 17 81 32
270 22 270 -4 0 -7 -7 -7 -16z"/>
<path d="M5850 5735 c0 -4 20 -36 45 -70 90 -127 212 -213 356 -252 99 -27
268 -22 393 11 111 29 152 51 54 29 -96 -22 -336 -22 -423 1 -149 38 -310 139
-390 243 -19 25 -35 42 -35 38z"/>
<path d="M8255 5628 c-4 -18 -22 -66 -41 -105 -41 -87 -60 -99 -182 -119 -47
-7 -87 -15 -89 -17 -18 -19 196 -121 240 -115 15 2 31 20 48 54 23 45 27 70
33 189 8 136 4 177 -9 113z"/>
<path d="M5018 5431 c-59 -23 -124 -74 -143 -112 -17 -32 -20 -95 -5 -104 6
-3 10 2 10 12 0 23 48 100 81 130 13 12 51 38 83 57 65 39 52 47 -26 17z"/>
<path d="M4864 5372 c-49 -33 -150 -107 -226 -165 -75 -59 -139 -107 -143
-107 -8 0 -2 43 9 75 6 16 2 14 -18 -8 -29 -31 -50 -97 -36 -111 5 -5 26 -4
52 2 23 6 44 10 46 8 1 -2 -3 -15 -9 -30 -8 -17 -18 -25 -27 -21 -7 3 -19 2
-24 -2 -6 -3 -97 -5 -202 -4 -383 3 -489 -31 -626 -201 -40 -51 -117 -178
-107 -178 2 0 21 25 42 55 88 128 248 248 365 273 25 6 171 11 325 13 302 3
512 -14 574 -45 27 -15 58 -16 224 -11 192 5 224 2 113 -10 -50 -6 -66 -13
-93 -40 -18 -18 -33 -41 -32 -51 0 -11 3 -14 6 -6 2 6 15 12 28 12 13 0 27 5
31 11 13 22 77 40 181 50 73 7 110 6 117 -1 5 -5 21 -10 36 -11 14 0 19 -3 12
-6 -11 -4 -10 -8 1 -22 8 -9 25 -53 37 -98 12 -45 29 -90 37 -100 14 -17 14
-17 8 2 -17 46 -45 160 -45 180 0 11 -5 26 -12 33 -19 19 18 27 45 9 13 -8 39
-48 60 -88 20 -41 46 -85 57 -99 11 -14 -3 20 -31 75 -28 55 -56 104 -63 108
-6 4 21 7 59 6 70 -2 115 6 115 21 0 17 -39 20 -248 21 -119 1 -207 4 -194 6
39 8 24 19 -29 22 -28 1 -61 6 -74 11 -14 5 -36 6 -52 0 -88 -27 -243 -18
-243 15 0 23 -31 18 -37 -5 -4 -16 -8 -18 -19 -9 -8 6 -14 17 -14 24 0 22 -60
37 -84 22 -32 -21 -101 -29 -133 -16 -15 7 -38 11 -50 10 -18 0 -23 5 -23 22
0 26 14 46 50 72 23 16 16 16 -25 -1 -8 -3 -15 -2 -15 4 0 6 26 25 58 42 31
18 84 56 117 85 110 96 235 215 226 215 -5 0 -49 -26 -97 -58z"/>
<path d="M4746 5354 c-84 -34 -168 -49 -194 -35 -11 6 -23 11 -26 11 -8 0 -8
-110 0 -148 l6 -31 118 90 c101 78 174 141 159 138 -2 0 -31 -12 -63 -25z"/>
<path d="M7807 5323 c25 -32 63 -94 84 -138 40 -84 50 -77 23 15 -20 68 -63
132 -108 159 -18 12 -36 21 -40 21 -3 0 15 -26 41 -57z"/>
<path d="M7870 5345 c0 -4 14 -23 31 -43 45 -51 62 -98 62 -169 1 -37 5 -64
11 -64 6 -1 64 -2 128 -3 l118 -1 0 56 c0 33 6 63 15 75 8 10 14 33 14 49 0
29 -1 29 -19 -12 l-19 -42 -43 24 c-24 13 -61 28 -84 34 -23 6 -63 28 -90 48
l-49 37 28 -37 c15 -20 39 -54 54 -74 15 -21 45 -59 66 -85 27 -33 34 -48 24
-48 -9 0 -36 26 -61 59 -93 120 -186 218 -186 196z"/>
<path d="M5275 5259 c-89 -59 -154 -91 -178 -87 -15 2 -26 14 -33 38 l-12 35
-11 -43 c-10 -37 -10 -47 4 -68 28 -43 76 -27 185 61 60 49 119 106 109 104
-2 0 -31 -18 -64 -40z"/>
<path d="M5385 5284 c-16 -8 -59 -44 -95 -78 -36 -35 -80 -71 -98 -81 -19 -9
-32 -19 -29 -21 11 -11 90 39 149 95 35 32 79 68 98 80 40 24 20 29 -25 5z"/>
<path d="M7486 5284 c47 -12 81 -30 150 -83 99 -76 143 -101 174 -101 31 0 24
18 -14 34 -18 8 -64 36 -102 64 -97 70 -148 93 -213 98 l-56 3 61 -15z"/>
<path d="M4784 5219 c-10 -12 -45 -44 -77 -70 l-58 -49 33 0 c18 -1 49 -7 69
-14 37 -13 59 -11 59 6 0 6 12 24 26 41 l25 30 -31 14 c-27 11 -31 17 -26 38
8 31 5 31 -20 4z"/>
<path d="M7266 5229 c3 -5 22 -13 43 -19 22 -6 70 -37 112 -71 88 -74 121 -89
191 -88 l53 1 -57 13 c-63 13 -88 28 -163 90 -27 23 -60 48 -72 54 -29 15
-114 31 -107 20z"/>
<path d="M5625 5211 c-29 -17 -42 -31 -102 -110 -25 -32 -84 -62 -156 -80 -61
-15 -132 -3 -279 45 -108 36 -158 42 -217 29 -22 -5 -30 -10 -23 -17 7 -7 22
-6 46 2 32 10 45 7 173 -43 182 -71 246 -90 316 -89 76 1 117 15 153 53 l29
31 -32 -7 c-18 -3 -33 -3 -33 0 0 18 95 147 128 174 42 35 41 39 -3 12z"/>
<path d="M5670 5204 c-36 -25 -90 -77 -90 -86 0 -5 18 6 41 24 37 29 48 33
104 33 67 0 86 8 68 26 -20 20 -96 22 -123 3z"/>
<path d="M7090 5180 c0 -4 -6 -8 -12 -7 -46 1 -52 -4 -19 -19 22 -9 38 -11 44
-5 11 11 53 -3 81 -27 34 -31 46 -73 34 -127 -10 -51 -28 -84 -28 -52 0 10 -5
14 -15 11 -18 -7 -20 7 -2 25 10 11 8 12 -9 3 -26 -14 -38 -42 -25 -55 5 -5 7
-16 4 -24 -4 -11 3 -12 38 -7 71 11 77 17 71 70 -3 34 -2 45 7 40 6 -4 11 -27
11 -52 l0 -44 73 -2 c122 -4 146 0 217 33 92 42 110 62 49 54 -24 -4 -66 -13
-93 -21 -64 -20 -87 -13 -148 44 -43 39 -49 43 -42 22 4 -14 8 -38 9 -55 0
-24 -5 -31 -22 -33 -17 -3 -24 3 -29 25 -20 90 -29 110 -61 140 -19 18 -39 33
-44 33 -6 0 -28 9 -49 19 -22 11 -40 16 -40 11z"/>
<path d="M6273 5125 c-13 -9 -23 -23 -23 -31 0 -20 48 -37 87 -29 28 5 33 10
33 35 0 30 -13 40 -25 20 -10 -16 -43 -12 -47 5 -3 14 -5 14 -25 0z"/>
<path d="M6417 5119 c-12 -44 21 -65 83 -53 41 9 50 32 20 56 -21 17 -25 17
-32 4 -11 -20 -32 -20 -51 -1 -13 12 -16 12 -20 -6z"/>
<path d="M6388 5117 c-5 -10 -8 -32 -8 -49 l0 -31 -120 7 c-65 4 -133 11 -150
16 -16 5 -30 5 -30 1 0 -19 28 -31 71 -31 79 0 107 -9 115 -39 6 -23 8 -24 12
-6 7 34 23 45 66 45 l41 0 -3 -92 c-2 -51 -8 -98 -13 -104 -13 -16 -96 -15
-110 2 -10 13 -14 12 -30 -2 -17 -15 -20 -15 -44 0 -18 12 -36 15 -56 11 -18
-4 -36 -2 -45 6 -8 7 -27 14 -42 15 -15 2 -32 11 -39 20 -12 17 -14 17 -26 -1
-10 -12 -19 -15 -28 -9 -8 5 -22 7 -31 6 -9 -2 -36 7 -59 18 -23 12 -50 19
-61 17 -14 -4 -22 2 -30 21 -9 21 -12 23 -15 10 -11 -46 61 -92 198 -127 153
-39 365 -54 411 -30 16 8 31 8 62 -1 60 -18 130 -14 242 16 78 20 138 27 284
34 218 11 311 20 305 30 -3 5 -31 6 -64 3 -58 -6 -58 -5 -69 26 -9 27 -15 31
-35 25 -24 -5 -25 -5 -17 38 5 24 5 61 1 83 -6 35 -8 30 -13 -43 -6 -77 -18
-112 -39 -112 -5 0 -12 12 -15 26 l-6 25 -19 -30 c-19 -31 -19 -31 -109 -31
-63 0 -100 -5 -121 -16 -23 -11 -34 -12 -44 -4 -10 8 -15 8 -20 -1 -6 -8 -11
-7 -17 6 -9 15 -11 15 -25 -5 -11 -15 -18 -19 -26 -11 -8 8 -15 7 -26 -3 -11
-10 -46 -16 -101 -18 l-85 -3 -1 103 0 102 37 0 c40 0 68 -20 70 -48 0 -10 4
-6 10 9 12 31 33 39 110 39 38 0 61 5 69 15 17 21 8 28 -22 16 -14 -5 -81 -13
-151 -16 l-126 -8 -3 49 c-2 34 -5 43 -10 31z"/>
<path d="M5596 5098 c-48 -68 20 -175 106 -166 l30 3 -47 35 c-56 41 -79 82
-71 121 7 35 2 36 -18 7z"/>
<path d="M5731 5018 c1 -52 3 -66 9 -48 12 36 12 120 0 120 -6 0 -10 -30 -9
-72z"/>
<path d="M7831 5078 c-19 -5 -44 -16 -55 -24 -11 -8 -28 -14 -37 -14 -9 0 -19
-7 -23 -15 -3 -8 -11 -15 -18 -15 -7 0 -28 -15 -48 -34 -32 -31 -145 -86 -177
-86 -7 0 -13 -4 -13 -10 0 -14 13 -13 102 12 75 20 79 21 92 3 11 -16 23 -17
102 -11 49 4 157 18 239 31 164 27 330 45 406 45 68 0 61 14 -13 27 -35 7 -74
15 -88 18 -23 6 -24 5 -7 -8 29 -24 19 -28 -24 -10 -33 13 -46 14 -60 5 -27
-17 -52 -15 -45 3 7 19 -23 20 -50 1 -14 -11 -22 -12 -33 -3 -10 9 -19 5 -38
-17 -22 -26 -25 -27 -37 -11 -18 25 -70 17 -74 -12 -3 -21 -5 -22 -30 -9 -15
7 -47 17 -72 20 -45 7 -45 7 -17 -9 47 -27 32 -46 -18 -23 -19 9 -28 9 -37 0
-16 -16 -63 -15 -77 1 -14 18 5 37 36 37 16 0 23 6 23 19 0 10 18 31 43 47 34
24 52 29 99 29 32 -1 54 2 50 6 -14 13 -67 16 -101 7z"/>
<path d="M6130 4967 c0 -29 40 -67 71 -67 16 0 29 -4 29 -10 0 -5 11 -10 25
-10 33 0 75 42 74 72 -1 20 -2 19 -15 -9 -13 -31 -40 -53 -65 -53 -7 0 -3 9 9
20 34 31 27 40 -31 40 -31 0 -61 6 -75 16 -18 13 -22 13 -22 1z"/>
<path d="M6460 4948 c0 -39 32 -68 73 -67 27 2 28 2 7 6 -33 6 -50 21 -66 58
l-13 30 -1 -27z"/>
<path d="M6630 4960 c-8 -5 -39 -10 -67 -10 -40 0 -53 -4 -53 -15 0 -36 95
-48 124 -16 22 24 18 55 -4 41z"/>
<path d="M8533 4963 c-30 -11 -11 -25 26 -19 90 14 324 -33 437 -89 121 -59
218 -186 273 -354 24 -74 24 -74 11 -66 -15 9 -12 -1 9 -44 12 -22 16 -43 11
-50 -4 -8 -2 -25 6 -40 8 -14 14 -40 14 -58 0 -17 5 -35 10 -38 17 -10 11 112
-9 211 -55 267 -213 469 -406 518 -103 26 -345 45 -382 29z"/>
<path d="M4996 4848 c-4 -20 -5 -41 -2 -47 4 -6 11 -47 16 -92 5 -46 15 -87
21 -93 8 -8 10 1 6 34 -19 140 -18 146 7 55 24 -92 72 -222 87 -239 5 -6 9 2
9 17 0 22 11 8 46 -60 25 -48 50 -92 55 -97 12 -13 12 6 -1 38 -11 31 0 34 25
6 46 -51 263 -180 303 -180 18 0 15 35 -5 52 -10 9 -52 33 -93 53 -222 110
-355 264 -430 498 -6 20 -15 35 -20 32 -5 -3 -10 9 -12 27 l-4 33 -8 -37z"/>
<path d="M5383 4864 c-3 -8 -3 -38 0 -67 7 -56 47 -200 55 -193 2 3 -4 57 -13
121 -12 85 -14 120 -6 128 17 17 13 27 -9 27 -11 0 -23 -7 -27 -16z"/>
<path d="M7315 4861 c5 -10 25 -15 104 -27 28 -4 39 -9 31 -14 -9 -6 0 -12 28
-20 34 -9 42 -15 42 -34 0 -13 7 -29 15 -36 21 -17 20 7 -2 61 -21 54 -72 78
-161 79 -36 0 -61 -4 -57 -9z"/>
<path d="M7666 4819 c-7 -44 -92 -270 -105 -279 -4 -3 -23 -33 -41 -68 -47
-88 -95 -133 -195 -183 -67 -33 -100 -44 -148 -46 -96 -6 -109 -10 -105 -36 4
-29 51 -51 109 -52 65 0 200 68 271 138 55 55 96 125 105 183 3 18 10 32 16
31 6 -1 13 12 17 29 4 17 23 69 43 115 42 99 61 174 49 196 -7 11 -11 4 -16
-28z"/>
<path d="M7177 4809 c8 -17 19 -63 23 -102 l7 -72 2 80 c1 59 -3 87 -15 103
-23 33 -35 27 -17 -9z"/>
<path d="M7275 4795 c20 -121 49 -262 57 -275 16 -27 -1 142 -23 220 -23 85
-44 119 -34 55z"/>
<path d="M5790 4771 c104 -92 261 -133 515 -133 175 0 266 12 350 43 72 27 70
40 -2 23 -32 -7 -135 -19 -229 -25 -259 -17 -421 5 -574 79 -41 20 -79 38 -85
40 -5 2 6 -10 25 -27z"/>
<path d="M5950 4781 c73 -61 213 -85 445 -78 168 5 247 18 329 52 51 22 41 27
-25 15 -212 -41 -592 -28 -754 25 -16 6 -16 3 5 -14z"/>
<path d="M7227 4695 c-8 -113 -27 -197 -63 -267 -13 -26 -26 -48 -28 -48 -1 0
1 26 6 57 5 32 8 75 6 98 l-3 40 -24 -72 c-13 -40 -39 -100 -59 -133 -43 -73
-151 -180 -182 -180 -12 0 -30 -4 -40 -10 -17 -9 -17 -12 -3 -41 l15 -31 26
36 c27 39 43 44 61 22 6 -8 25 -16 42 -18 26 -4 32 -1 40 21 6 14 41 68 78
121 72 100 94 138 116 201 22 60 35 188 27 249 -8 54 -8 54 -15 -45z"/>
<path d="M5700 4772 c0 -19 124 -123 178 -151 100 -49 141 -56 347 -56 128 0
208 4 245 14 111 28 88 32 -137 26 -180 -4 -236 -2 -300 10 -88 18 -215 76
-285 130 -27 20 -48 32 -48 27z"/>
<path d="M5696 4682 c27 -47 93 -106 151 -136 72 -36 152 -54 301 -68 117 -11
148 -10 245 5 62 9 130 22 152 28 l40 12 -35 8 c-19 5 -147 8 -285 8 -202 -1
-261 2 -310 15 -85 23 -174 69 -230 118 l-49 43 20 -33z"/>
<path d="M8060 4583 c-82 -60 -247 -121 -384 -143 -58 -9 -70 -9 -80 5 -9 12
-12 -2 -13 -65 -3 -71 -15 -154 -38 -242 l-7 -28 68 0 c38 0 134 7 214 16 80
8 251 17 380 19 222 2 240 4 325 29 144 43 208 78 245 133 35 54 56 121 65
208 l6 60 -24 -58 c-45 -106 -93 -150 -237 -223 -125 -62 -395 -108 -886 -149
-67 -6 -138 7 -104 18 8 3 98 10 200 16 282 18 468 47 625 99 92 30 138 68
154 128 12 44 27 204 19 204 -3 0 -15 -27 -27 -59 -12 -33 -42 -91 -68 -130
-70 -106 -153 -143 -408 -182 -157 -24 -485 -38 -485 -21 0 8 30 12 93 12 210
0 334 33 461 124 94 67 154 146 171 225 l7 34 -58 -60 c-126 -127 -298 -215
-514 -264 -90 -20 -171 -25 -154 -10 5 4 52 19 104 31 175 42 303 91 360 138
22 19 18 18 -40 -5 -89 -35 -174 -60 -307 -87 l-113 -23 0 33 c0 27 5 35 23
38 211 41 373 105 436 170 41 42 39 44 -9 9z"/>
<path d="M3956 4554 c-14 -108 -2 -233 31 -299 20 -39 70 -92 108 -113 26 -15
66 -17 268 -18 131 0 240 3 243 8 3 4 -6 8 -21 8 -41 0 -198 38 -270 65 -36
13 -85 38 -109 54 -85 59 -169 171 -212 281 -25 65 -30 67 -38 14z"/>
<path d="M4213 4509 c6 -112 26 -172 73 -227 88 -103 314 -152 698 -152 99 0
198 3 218 6 l38 7 -20 28 c-27 37 -49 100 -65 184 -10 51 -13 60 -14 34 -1
-51 -13 -57 -26 -12 -10 36 -13 38 -70 49 -95 19 -193 60 -272 114 l-72 49 5
-32 c12 -71 36 -117 85 -161 63 -56 144 -85 267 -93 94 -6 118 -17 60 -26 -86
-13 -311 32 -400 80 -45 24 -156 131 -206 198 l-23 30 6 -35 c10 -56 60 -151
111 -208 85 -97 171 -124 404 -127 89 -1 154 -5 153 -11 -5 -17 -310 -16 -418
1 -196 33 -348 95 -405 167 -35 43 -110 183 -110 205 0 6 -5 15 -11 19 -9 5
-10 -18 -6 -87z"/>
<path d="M5700 4595 c0 -25 63 -116 106 -154 99 -87 212 -122 414 -128 277 -9
455 48 542 172 15 22 31 55 34 74 l7 33 -47 -36 c-98 -74 -308 -119 -561 -120
-239 -1 -355 32 -452 127 -24 23 -43 37 -43 32z"/>
<path d="M8446 4554 c-41 -101 -176 -204 -348 -264 l-83 -30 75 6 c134 11 242
60 309 141 36 44 73 136 69 170 -2 19 -6 15 -22 -23z"/>
<path d="M3637 4567 c-10 -26 -8 -114 4 -166 13 -56 67 -173 110 -240 28 -42
39 -51 63 -51 l29 0 -27 33 c-86 106 -150 252 -164 373 -5 45 -10 63 -15 51z"/>
<path d="M3731 4520 c-1 -113 45 -228 129 -322 50 -56 53 -58 103 -58 l52 0
-67 40 c-36 22 -79 55 -94 73 -38 44 -78 138 -99 227 -23 102 -23 102 -24 40z"/>
<path d="M5508 4552 c-25 -5 -32 -44 -18 -89 7 -21 36 -81 66 -135 30 -53 54
-103 54 -111 0 -26 -50 -76 -83 -86 l-32 -8 37 -8 c53 -10 73 -4 73 25 0 19 6
26 23 28 21 3 23 0 20 -25 l-3 -28 68 0 c277 2 410 6 402 14 -6 5 -69 11 -141
13 -123 3 -134 5 -196 36 -82 40 -131 94 -175 191 -19 42 -43 93 -54 114 -16
28 -18 41 -10 51 13 16 -3 25 -31 18z"/>
<path d="M6940 4482 c-154 -157 -345 -220 -642 -209 -309 10 -515 92 -616 243
-22 33 -5 -33 25 -95 87 -180 338 -274 692 -258 143 6 214 23 321 75 95 46
211 158 259 250 17 34 31 62 29 61 -2 0 -32 -30 -68 -67z"/>
<path d="M3496 4479 c-19 -67 -35 -190 -37 -289 -2 -63 0 -76 14 -78 15 -3 17
9 17 105 0 59 7 153 15 208 7 55 12 101 10 103 -2 2 -11 -20 -19 -49z"/>
<path d="M9017 4495 c-28 -105 -185 -237 -357 -301 -29 -10 -31 -13 -11 -13
37 -1 141 28 198 56 104 51 189 172 181 257 l-3 31 -8 -30z"/>
<path d="M9154 4473 c-12 -48 -51 -117 -90 -156 -79 -80 -165 -127 -302 -162
-92 -24 -89 -31 20 -41 218 -19 350 97 383 339 7 51 -1 64 -11 20z"/>
<path d="M9237 4381 c-8 -65 -55 -169 -103 -228 l-35 -43 35 0 c27 0 39 6 56
29 47 68 73 171 61 251 l-7 45 -7 -54z"/>
<path d="M9266 4195 c-10 -33 -21 -66 -23 -72 -3 -7 2 -13 10 -13 11 0 19 17
27 55 17 80 8 99 -14 30z"/>
</g>
</svg>
