<svg width="1283" height="1283" viewBox="0 0 1283 1283" fill="none" xmlns="http://www.w3.org/2000/svg">
<g id="Group 1">
<g id="Group">
<path id="Vector" d="M610.125 0.29825C530.491 5.01209 473.925 16.7465 410.539 41.5192C315.66 78.8288 231.614 136.899 164.316 212.02C38.0456 352.632 -20.5264 546 6.45284 733.651C19.6917 825.922 52.8891 913.379 104.44 991.809C177.956 1103.74 283.867 1189.99 407.53 1238.83C463.494 1260.9 522.367 1274.94 585.553 1281.16C609.724 1283.57 669.098 1283.57 693.469 1281.16C793.664 1271.33 879.516 1244.55 962.459 1197.31C1013.21 1168.53 1048.61 1141.25 1092.64 1097.42C1127.54 1062.72 1149.91 1036.24 1173.58 1001.74C1224.63 927.319 1258.63 843.774 1275.48 750.902C1281.8 715.899 1283 698.046 1283 642.082C1283 586.218 1281.4 563.05 1275.08 528.749C1237.67 326.255 1112.9 158.964 930.565 66.994C855.445 28.9824 788.348 9.92651 702.396 2.10355C686.449 0.699427 624.266 -0.6044 610.125 0.29825ZM640.313 13.2362C642.62 16.3454 644.426 35.4013 645.228 65.8908C645.529 78.3273 646.03 90.7638 646.331 93.4718L646.833 98.4865L674.514 100.292C689.759 101.295 706.307 102.599 711.322 103.301C726.065 105.006 727.168 104.905 728.773 101.596C729.575 100.091 731.28 93.0706 732.584 86.05C736.195 66.5929 735.794 63.8849 729.375 63.8849C724.862 63.8849 721.251 65.3893 720.048 67.7964C719.446 68.8996 718.242 74.2152 717.34 79.6311C716.437 85.047 715.434 89.7609 715.033 90.0617C714.732 90.4629 709.517 90.3626 703.399 89.8612C677.322 87.8553 666.089 86.8523 663.08 86.2506L659.771 85.7491V72.5102C659.771 65.289 660.473 48.941 661.275 36.3039C662.077 23.5666 662.779 12.8351 662.779 12.4339C662.779 11.5312 668.897 11.8321 695.877 13.838C733.888 16.6462 796.973 27.5783 805.097 32.6933C806.301 33.4957 804.997 39.4131 797.675 67.0943C784.737 115.938 784.737 116.239 786.643 117.743C788.448 119.047 847.221 138.705 859.056 141.914L866.176 143.92L871.291 132.787C879.315 114.834 880.619 111.023 879.315 109.419C878.713 108.717 876.206 107.112 873.799 105.908C867.982 103.2 867.581 103.601 861.362 116.74C858.654 122.457 855.746 127.371 854.843 127.672C852.737 128.575 806.702 112.628 803.894 110.02C802.59 108.917 809.209 84.8464 817.734 59.3717C823.551 42.0207 825.156 38.8113 827.764 38.8113C838.395 38.8113 950.524 88.1561 956.642 95.4776C957.645 96.7815 956.241 99.7903 948.017 114.333C926.754 151.743 924.247 156.457 920.937 163.878C919.132 168.091 917.828 171.902 918.129 172.303C918.33 172.805 926.353 178.221 935.881 184.539C945.409 190.858 960.253 201.489 969.079 208.209C977.804 214.928 985.326 220.344 985.727 220.144C986.63 219.843 1001.98 200.787 1005.49 195.772C1009.1 190.456 1009.2 188.751 1005.69 184.84C1000.37 178.722 998.064 179.625 988.134 191.861C983.922 197.076 980.111 201.288 979.609 201.288C979.208 201.288 969.781 194.669 958.848 186.445C947.916 178.321 937.887 170.999 936.583 170.097L934.176 168.492L945.509 150.038C959.35 127.772 973.592 106.009 974.494 106.009C975.999 106.009 997.562 120.15 1009 128.675C1043.2 154.05 1086.02 191.359 1086.02 195.772C1086.02 198.079 1077.6 207.506 1052.52 233.182L1028.75 257.553L1031.46 260.763C1044.6 276.308 1060.25 295.264 1068.77 305.895C1074.49 312.916 1080.2 319.335 1081.51 320.237C1083.82 321.742 1084.22 321.642 1087.73 319.535C1094.65 315.423 1110.19 303.388 1111.7 301.081C1113 299.176 1113 298.273 1112 296.367C1110.29 293.058 1106.98 289.547 1105.48 289.547C1104.78 289.547 1100.16 292.255 1095.25 295.565C1090.43 298.875 1085.52 301.583 1084.42 301.583C1082.31 301.583 1077 296.367 1057.54 275.105C1046.2 262.869 1046.41 263.571 1054.23 254.244C1059.34 248.025 1100.16 209.211 1101.07 209.512C1101.47 209.713 1106.28 214.828 1111.8 220.846C1130.55 241.607 1152.12 270.09 1170.57 298.273C1185.71 321.441 1188.82 326.556 1187.72 327.659C1187.22 328.161 1170.57 337.588 1150.71 348.721C1130.85 359.854 1114.2 369.382 1113.7 369.883C1113.1 370.385 1118.12 381.718 1126.94 399.57C1134.76 415.517 1142.59 432.066 1144.49 436.479C1148.71 446.809 1150.01 447.31 1161.44 443.6C1166.06 442.095 1173.18 439.287 1177.29 437.181C1184.41 433.67 1184.81 433.269 1185.11 429.759C1185.31 427.753 1184.71 424.644 1183.81 422.939C1181.9 419.228 1180.9 419.328 1168.97 423.942C1157.93 428.154 1157.33 428.154 1154.12 423.44C1150.81 418.526 1138.58 394.656 1134.66 385.328L1131.76 378.508L1134.66 376.202C1140.88 371.187 1194.04 345.712 1198.15 345.712C1201.36 345.712 1226.43 403.783 1238.87 439.989C1245.19 458.242 1248.5 470.378 1248.5 475.092C1248.5 479.104 1248.2 479.204 1217.11 488.231C1187.22 496.856 1181.4 498.661 1173.98 501.971C1167.06 504.98 1167.06 501.169 1173.58 533.263C1175.99 545.699 1179.09 561.345 1180.3 568.165C1183.41 585.316 1183.01 584.914 1199.05 584.814C1216.61 584.714 1221.42 582.307 1221.42 573.38C1221.42 567.162 1221.52 567.162 1206.38 567.965L1192.63 568.667L1192.03 565.357C1190.23 556.631 1185.41 526.142 1185.01 521.328C1184.71 517.216 1185.01 515.511 1186.22 514.307C1189.22 511.298 1245.39 498.661 1252.61 499.363C1255.62 499.664 1256.12 500.166 1257.22 504.077C1262.74 523.434 1272.57 603.77 1272.57 630.147V643.587H1229.74L1186.82 643.486L1186.12 649.805C1184.91 660.235 1180.4 708.577 1179.7 718.908L1178.99 728.636L1181.9 729.238C1187.42 730.341 1214.6 732.949 1215.8 732.548C1216.5 732.247 1217.91 729.439 1218.91 726.329C1220.42 721.415 1220.52 720.412 1219.21 719.209C1218.41 718.406 1212.69 716.902 1206.58 715.799C1200.36 714.796 1194.84 713.592 1194.24 713.191C1193.04 712.489 1193.34 704.666 1195.54 674.878L1196.65 659.433L1231.85 659.834C1257.93 660.035 1267.65 660.536 1269.36 661.439C1271.37 662.542 1271.57 663.445 1271.57 670.165C1271.57 695.74 1257.02 789.816 1251.41 800.246C1250.4 802.052 1249.7 802.252 1243.78 801.55C1240.17 801.149 1222.72 797.338 1205.07 792.925C1187.32 788.612 1171.67 785.002 1170.17 785.002C1166.26 785.002 1163.75 788.713 1160.74 798.842C1159.24 803.656 1154.32 817.999 1149.71 830.736C1139.88 858.016 1139.28 860.222 1141.69 863.833C1143.59 866.742 1153.72 871.756 1165.05 875.367C1173.28 877.975 1174.58 877.674 1177.69 872.358C1180.8 867.042 1179.2 865.337 1166.36 859.721C1160.24 857.113 1154.92 854.606 1154.72 854.205C1154.02 853.102 1166.26 820.004 1170.37 811.68C1172.27 807.869 1174.58 804.258 1175.48 803.656C1178.39 801.851 1224.13 814.388 1236.46 820.406C1242.18 823.214 1242.98 824.016 1243.28 826.724C1244.59 839.562 1193.14 954.499 1186.12 954.499C1183.61 954.499 1180.2 952.694 1149.61 935.443C1112.7 914.482 1111.2 913.78 1109.59 915.485C1106.28 919.095 1064.96 980.475 1064.96 981.98C1064.96 985.29 1080.71 999.933 1088.83 1004.04C1092.94 1006.15 1094.75 1005.65 1099.06 1001.14C1103.27 996.823 1102.87 995.821 1094.95 990.304C1087.02 984.888 1083.01 980.676 1083.01 977.968C1083.01 975.561 1092.54 960.818 1104.98 944.069L1112.1 934.44L1115.91 935.945C1129.45 941.662 1172.98 968.34 1175.58 972.652C1177.19 975.26 1164.05 994.617 1135.37 1031.63C1110.69 1063.52 1092.14 1084.88 1089.33 1084.88C1086.52 1084.88 1076.09 1075.76 1050.32 1050.98L1024.34 1026.01L1014.81 1034.73C1001.67 1046.67 985.126 1060.91 972.589 1070.84C966.872 1075.35 962.058 1079.47 961.857 1079.97C961.556 1080.77 972.589 1098.92 978.506 1107.15C980.412 1109.86 982.418 1111.96 983.12 1111.96C985.126 1111.96 995.757 1104.84 995.757 1103.44C995.757 1102.73 994.954 1101.53 994.052 1100.83C991.143 1098.42 980.713 1083.78 980.713 1082.07C980.713 1081.17 983.12 1078.26 986.028 1075.55C994.553 1067.53 1022.03 1044.66 1022.74 1044.96C1024.24 1045.67 1060.65 1085.78 1068.27 1095.11C1072.88 1100.73 1073.08 1100.43 1061.55 1110.86C1038.18 1132.12 989.338 1167.93 966.471 1180.56C955.338 1186.78 957.244 1188.69 934.678 1149.57C923.846 1130.82 914.619 1114.87 914.217 1114.27C913.114 1112.56 907.498 1114.77 872.996 1130.42C857.651 1137.44 843.109 1143.65 840.702 1144.26C835.185 1145.76 835.085 1146.86 839.298 1159.3C844.413 1174.44 848.324 1183.07 850.43 1183.67C853.038 1184.57 858.654 1182.57 860.961 1180.06C862.766 1178.06 862.766 1177.75 858.955 1166.72C856.749 1160.5 855.244 1154.69 855.646 1153.88C856.348 1151.98 890.047 1134.93 897.869 1132.42C900.878 1131.52 903.987 1131.02 904.79 1131.32C906.294 1131.92 923.244 1162.81 930.967 1179.36C933.474 1184.47 935.68 1190.29 936.082 1192.3C936.683 1195.51 936.383 1196.21 933.474 1198.62C921.439 1208.75 825.958 1246.36 811.315 1246.76C806.2 1246.86 805.699 1246.66 803.693 1243.65C802.49 1241.94 799.982 1235.12 798.277 1228.6C785.841 1183.27 782.029 1171.74 778.92 1170.03C775.811 1168.43 749.534 1171.94 703.098 1180.26L696.679 1181.37L697.281 1185.58C697.582 1187.78 698.585 1196.31 699.487 1204.43C700.39 1212.46 701.493 1219.68 701.894 1220.38C702.596 1221.38 703.8 1221.38 708.112 1220.18C715.635 1218.17 716.236 1216.57 714.331 1202.83C713.528 1196.81 713.127 1191.7 713.428 1191.39C713.93 1190.89 752.342 1184.07 763.174 1182.57L767.888 1181.87L769.994 1187.48C773.906 1198.01 786.543 1249.97 785.54 1251.57C785.139 1252.17 782.932 1253.48 780.525 1254.48C767.086 1260.5 700.691 1269.12 661.275 1270.13L639.21 1270.73L639.511 1229.21C639.812 1195.81 639.611 1187.38 638.508 1186.08C635.8 1182.77 558.473 1177.75 555.464 1180.76C553.759 1182.47 551.453 1194.8 550.751 1205.94L550.149 1216.27L553.86 1217.77C561.883 1221.18 564.391 1218.07 566.998 1201.62C567.901 1196.21 568.804 1191.6 569.004 1191.19C569.405 1190.49 601.901 1192.7 613.635 1194.2C618.249 1194.8 622.662 1195.81 623.364 1196.41C624.968 1197.71 624.968 1223.89 623.364 1250.87L622.16 1269.93L617.647 1270.23C596.685 1271.83 501.406 1257.39 483.854 1249.97L479.943 1248.36L480.645 1243.35C481.547 1236.93 491.075 1198.42 495.789 1182.67C499.6 1169.63 500.002 1166.92 498.096 1165.32C497.394 1164.82 492.58 1163.11 487.465 1161.71C482.35 1160.2 465.701 1154.49 450.556 1149.07C435.412 1143.55 422.173 1139.04 421.17 1139.04C419.866 1139.04 418.161 1141.15 415.754 1145.76C411.141 1154.69 406.026 1167.52 406.026 1170.53C406.026 1174.75 413.849 1179.96 417.359 1178.06C418.262 1177.45 420.167 1173.34 421.571 1168.63C422.975 1164.01 424.981 1159.2 425.984 1158L427.79 1155.69L438.421 1158.5C452.061 1162.01 476.132 1169.83 478.94 1171.64L481.146 1173.14L477.636 1186.38C473.424 1202.53 469.211 1216.97 464.598 1232.01C461.388 1242.44 460.887 1243.35 458.68 1243.35C455.471 1243.35 430.397 1234.42 406.427 1224.69C375.937 1212.46 333.112 1190.89 328.799 1185.68C326.994 1183.57 328.598 1180.46 347.053 1148.27C363.401 1119.78 366.309 1113.77 365.507 1110.46C365.106 1108.75 356.581 1102.23 336.121 1087.59C300.315 1062.22 302.221 1063.52 299.313 1064.22C295 1065.32 276.646 1089.09 276.646 1093.61C276.646 1096.62 282.262 1099.42 285.873 1098.02C288.08 1097.22 294.9 1090.4 301.018 1083.08L303.725 1079.67L326.292 1095.51C338.728 1104.24 348.858 1111.86 348.858 1112.46C348.858 1113.87 337.324 1133.63 322.28 1158L310.445 1177.05L296.304 1167.52C277.248 1154.59 255.484 1138.04 236.027 1121.89C218.776 1107.45 198.416 1088.19 198.416 1086.19C198.416 1083.98 210.251 1070.94 234.121 1046.77L257.49 1023.2L249.867 1014.68C231.513 994.015 214.764 974.458 209.148 966.835C205.738 962.322 202.629 958.611 202.127 958.511C201.024 958.511 179.561 974.157 175.649 977.868C171.537 981.779 171.437 984.688 175.449 989.703L178.558 993.714L182.068 991.608C183.974 990.505 189.089 986.794 193.602 983.484C200.222 978.369 201.826 977.567 202.829 978.67C207.343 983.585 223.991 1003.34 228.705 1009.16C235.425 1017.68 236.829 1020.19 236.027 1022.6C234.522 1027.41 199.319 1058.2 186.682 1065.93L181.266 1069.14L176.151 1064.22C159.402 1047.87 110.157 981.679 99.6263 961.219L96.6175 955.402L99.1249 953.496C100.529 952.493 111.762 945.673 124.198 938.352C150.576 923.007 166.623 912.977 168.328 910.871C169.933 908.966 169.732 908.564 154.086 875.768C147.166 861.426 140.546 847.084 139.243 843.874C135.933 835.45 134.228 835.049 118.983 839.762C104.44 844.175 99.1249 847.385 99.1249 851.597C99.1249 854.807 102.836 860.222 105.042 860.222C106.145 860.222 111.461 858.618 116.777 856.712C122.092 854.807 127.308 853.202 128.311 853.202C129.815 853.202 131.821 856.612 137.136 867.444C143.956 881.685 151.278 899.839 151.278 902.747C151.278 904.853 125.903 919.496 99.0246 932.936C88.2931 938.352 87.6913 938.552 86.2872 936.847C77.0601 924.511 34.9365 818.5 34.9365 807.468C34.9365 802.653 40.3523 800.447 79.066 790.016C110.659 781.491 117.378 779.185 116.777 777.179C115.974 774.37 111.461 750.601 106.747 724.624C104.24 710.884 101.733 698.849 101.03 697.645C100.128 695.84 99.3255 695.639 96.3166 696.241C94.2104 696.542 86.5881 697.244 79.3669 697.545C72.0454 697.946 65.6265 698.748 65.0248 699.35C63.4201 700.955 62.718 708.979 63.9215 711.987C65.2254 715.397 67.833 715.598 81.9745 713.291C87.1898 712.389 91.5025 711.887 91.7031 711.987C92.4051 712.79 99.2252 753.309 99.8269 760.129L100.429 767.851L97.5202 768.955C90.4996 771.663 37.1429 782.996 31.4262 782.996C28.1164 782.996 28.1164 782.996 26.5117 775.775C21.5973 753.008 14.8776 701.156 12.8717 669.663C12.3702 660.536 11.5679 650.106 11.267 646.295L10.6652 639.575H54.2933H98.0216L98.5231 634.259C98.824 631.451 100.028 618.914 101.231 606.478C102.334 594.041 104.14 577.192 105.243 568.968C106.346 560.743 107.048 553.923 106.948 553.823C106.246 553.121 80.9716 550.313 75.8566 550.313C68.0336 550.313 65.4259 552.72 65.9274 559.54C66.128 562.348 71.8448 564.555 80.9716 565.558C85.6854 565.959 89.9981 566.861 90.4996 567.363C92.3049 569.168 92.2046 579.9 90.1987 601.864C89.0954 613.899 87.9922 623.929 87.7916 624.129C87.591 624.33 75.0542 624.029 59.9098 623.528C32.2285 622.525 15.7802 621.221 13.674 619.917C9.56197 617.309 23.202 513.204 31.4262 484.319C32.9306 479.405 33.1312 479.104 36.3406 479.104C41.1547 479.104 55.1959 482.113 80.3698 488.632C92.4051 491.741 106.045 495.051 110.659 496.053L119.083 497.959L122.594 487.729C124.6 482.213 130.517 465.464 135.732 450.62C140.948 435.676 145.26 423.039 145.26 422.337C145.26 418.827 120.588 404.786 113.868 404.485C111.26 404.384 110.458 404.986 108.452 408.396C104.942 414.614 105.343 416.42 110.96 418.526C113.567 419.429 119.083 421.535 123.396 423.139L131.018 426.048L123.697 447.31C119.685 459.045 115.473 470.779 114.47 473.588L112.564 478.602L107.449 478.502C104.24 478.402 90.1987 474.791 70.3404 468.974C52.7889 463.859 38.3465 459.546 38.1459 459.446C37.7447 459.245 49.1783 427.954 54.9953 413.21C62.6177 394.255 69.1368 379.712 80.0689 357.246C92.2046 332.373 95.3137 327.659 99.1249 327.659C100.93 327.659 111.561 333.175 128.21 342.703C159.502 360.656 169.13 365.771 171.337 365.771C173.543 365.771 182.77 353.234 202.829 323.447C216.068 303.689 218.676 299.376 218.074 297.27C217.372 294.462 201.024 280.922 194.204 277.412C190.092 275.306 188.387 275.606 184.977 279.418C181.968 282.727 183.673 285.636 193.301 294.462L202.328 302.686L195.708 312.414C185.679 327.057 173.844 343.004 171.437 345.11C169.231 347.116 169.231 347.116 163.915 344.509C152.08 338.692 111.662 312.414 109.756 309.305C108.352 307.099 110.859 302.285 121.089 287.04C138.641 260.963 163.514 230.173 183.974 209.412L198.216 194.869L225.095 221.046C239.938 235.489 254.28 249.028 256.988 251.235L261.903 255.347L269.525 247.925C277.147 240.604 288.581 230.674 311.448 211.518C318.168 205.902 323.885 200.887 324.186 200.386C325.289 198.58 306.032 173.908 301.72 171.701C299.313 170.498 298.61 170.498 295.602 172.002C289.684 175.011 290.286 178.822 298.51 189.955C301.72 194.268 304.628 198.279 305.029 198.981C305.43 199.684 297.708 207.206 284.469 218.84L263.106 237.595L257.59 231.577C254.581 228.267 243.549 216.533 233.018 205.4C222.587 194.268 213.461 184.238 212.658 183.135C211.455 181.33 211.755 180.828 216.269 176.716C239.336 155.955 274.439 128.876 299.212 112.528C316.964 100.894 324.386 96.7815 327.094 97.1826C328.699 97.3832 334.115 105.708 349.46 131.584C360.693 150.339 370.421 166.586 371.224 167.69C372.628 169.595 373.43 169.294 396.598 158.162C409.737 151.943 426.285 144.02 433.206 140.61C440.226 137.1 446.545 134.091 447.247 133.89C449.052 133.289 447.648 127.672 442.031 113.43C436.716 99.7903 435.011 97.5838 429.896 98.2859C427.79 98.5868 424.881 99.5897 423.477 100.492C420.669 102.298 420.568 101.796 425.583 115.537C427.388 120.451 429.194 125.566 429.595 126.87C430.197 128.976 429.194 129.678 415.855 135.997C407.931 139.808 397.1 144.722 391.784 146.929L381.955 151.041L379.548 147.831C372.628 138.805 348.356 94.7756 347.253 89.2594C346.752 86.4511 347.053 85.9497 351.365 82.9408C366.811 72.3096 454.167 36.9057 469.312 35.1004C480.043 33.7966 482.149 36.8054 488.267 60.8761C498.798 102.398 502.208 113.029 505.919 114.433C507.624 115.135 580.438 102.799 584.951 100.994C587.659 99.9909 587.659 99.9909 587.057 92.2682C585.553 74.7167 583.647 64.4867 581.441 62.6814C578.933 60.5752 574.821 61.177 572.314 64.0855C570.809 65.7905 570.509 68.1976 570.509 79.0294V91.867L567.299 92.4688C565.494 92.7697 554.963 94.6753 543.931 96.6812C532.898 98.6871 522.267 100.392 520.361 100.392L516.851 100.492L512.639 87.9556C507.423 72.0087 501.205 45.531 500.603 35.8025C500.102 28.2804 500.102 28.1801 502.81 26.9766C512.037 22.7642 561.683 15.4427 599.092 12.8351C607.417 12.2333 616.143 11.5312 618.65 11.3306C627.576 10.5283 639.11 11.6315 640.313 13.2362Z" fill="white"/>
<path id="Vector_2" d="M612.131 28.481C571.913 31.9913 550.951 34.3983 533.901 37.7081L524.875 39.4131L524.975 45.3304C525.075 52.351 528.987 72.2093 530.993 76.1208C532.698 79.3302 535.205 80.1326 542.025 79.7314L546.94 79.4305L547.24 74.9173C547.441 72.4099 547.04 65.6902 546.438 59.9734C545.535 52.351 545.535 49.4425 546.338 48.941C546.94 48.5399 558.975 47.1357 573.116 45.8319C601.901 43.2243 600.898 43.124 602.703 50.4455C604.308 57.3658 606.615 87.0529 606.615 101.194V114.935L603.405 115.436C601.6 115.737 591.771 117.141 581.541 118.545C557.069 121.955 530.09 127.07 507.524 132.386C495.087 135.395 488.969 136.498 488.668 135.696C488.468 135.094 484.055 120.351 478.84 103C473.624 85.6488 468.409 68.7993 467.205 65.4896C464.899 59.3717 462.191 55.8614 459.784 55.8614C454.067 55.8614 398.805 77.5249 378.746 87.5544L371.926 90.9644L374.032 96.28C376.339 102.097 387.572 123.359 390.079 126.368C391.584 128.274 391.684 128.274 395.094 126.569C399.707 124.262 404.02 120.05 404.02 117.944C404.02 117.041 402.014 111.625 399.607 105.908C397.1 100.292 395.395 95.1768 395.696 94.6753C397.2 92.1679 435.111 78.227 445.341 76.4217C448.852 75.7196 449.052 75.9202 450.958 79.6311C454.468 86.4511 466.503 120.05 470.214 133.389L472.12 140.209L467.707 143.017C465.3 144.522 456.775 148.433 448.952 151.743C441.029 154.952 422.875 163.377 408.533 170.498C381.153 184.038 367.212 190.256 364.203 190.256C363.2 190.256 361.295 188.551 359.89 186.445C358.587 184.439 348.958 169.395 338.528 153.147C328.097 136.899 319.271 123.159 318.77 122.657C317.065 120.852 296.404 134.191 269.124 154.651C252.776 166.887 243.549 174.61 241.643 177.518C240.64 179.123 240.841 180.126 242.947 183.336C247.46 190.055 263.808 208.409 266.416 209.613C268.623 210.616 269.224 210.315 273.236 206.102C275.643 203.495 277.649 200.486 277.649 199.383C277.649 198.279 274.239 192.864 270.027 187.247C265.814 181.631 262.806 176.616 263.307 176.215C265.413 174.309 298.41 150.64 302.723 147.932C305.431 146.227 308.239 145.123 309.041 145.424C309.844 145.725 313.053 149.436 316.363 153.849C325.088 165.483 348.858 201.188 348.858 202.692C348.858 203.495 343.543 207.908 337.124 212.622C314.457 228.969 265.814 271.294 263.407 276.609C262.705 278.214 261.602 279.518 261 279.518C258.994 279.518 249.567 272.698 241.142 265.176C236.729 261.164 224.092 249.73 213.16 239.701L193.201 221.447L185.479 230.674C156.293 265.477 134.228 294.963 134.228 299.075C134.228 301.984 161.909 319.636 166.523 319.636C170.535 319.636 175.349 314.822 175.349 310.81C175.349 307.299 172.841 304.491 164.517 298.674C156.092 292.757 155.791 291.152 161.608 282.727C167.626 273.901 178.458 260.562 185.579 252.94L191.195 246.922L194.605 249.329C202.027 254.745 223.992 273.199 232.517 281.223C241.944 290.049 245.254 294.662 243.85 296.869C243.449 297.571 237.331 305.594 230.41 314.721C213.962 336.184 203.03 351.83 189.992 372.691C184.175 382.019 178.759 390.143 177.956 390.744C176.251 392.148 174.246 391.246 132.122 369.482C116.376 361.358 102.736 354.739 101.833 354.739C100.629 354.739 97.42 360.255 91.2018 372.691C80.0691 394.957 73.9511 408.998 68.9364 424.243C64.2226 438.284 64.022 442.296 67.5323 444.603C70.9423 446.809 95.013 455.033 98.3227 455.033C100.028 455.033 101.833 453.93 103.638 451.824C109.154 445.305 108.954 441.493 102.936 438.685C80.7712 428.355 81.9747 429.558 84.9835 421.134C88.6944 410.302 103.337 376.803 104.24 376.803C105.845 376.803 137.638 391.045 149.673 397.163C161.207 402.98 168.328 407.995 168.328 410.201C168.328 410.803 163.715 422.839 158.198 436.88C146.865 465.263 139.644 485.523 136.234 497.658C135.03 502.071 132.724 508.992 131.019 512.903C128.311 519.422 127.709 520.224 125.402 520.224C122.795 520.224 119.084 519.422 74.5529 509.393C47.2728 503.174 45.2669 502.874 44.5649 504.077C42.4587 507.387 30.9248 585.516 30.9248 596.047V601.463H47.2728C64.022 601.463 70.7417 600.56 72.1458 598.254C72.6473 597.551 73.0485 595.144 73.0485 592.838C73.0485 587.021 71.1429 585.717 61.5146 584.814C57.1017 584.413 52.2875 583.51 50.7831 582.808C45.8687 580.301 45.969 573.882 51.5855 542.891C55.0958 524.036 55.0958 523.935 59.7093 524.838C83.2785 528.85 120.989 536.873 123.296 538.378C124.399 538.98 124.098 544.395 121.892 567.062C120.287 582.908 118.682 607.38 118.181 623.628C117.679 639.475 116.777 653.516 116.275 654.92C115.473 656.926 114.47 657.528 109.957 658.029C102.134 658.932 64.9246 661.439 46.7714 662.241C38.146 662.643 30.5237 663.345 29.8216 663.746C28.7184 664.348 28.8187 668.058 30.2228 682.902C32.4293 704.967 36.3407 735.155 38.7478 746.89C41.0546 758.424 41.9572 758.925 56.0987 756.618C61.8155 755.615 70.0397 753.91 74.3523 752.807L82.2756 750.601L81.6738 745.486C81.2726 742.677 80.2697 739.267 79.367 737.964C77.7623 735.356 77.3611 735.356 57.4026 737.462C51.8864 738.064 51.084 737.863 50.5825 736.259C48.5766 729.84 43.4616 681.799 44.6652 680.595C45.969 679.392 115.674 673.876 116.777 674.878C116.977 675.179 118.081 683.403 119.284 693.333C121.29 711.085 125.502 735.657 131.119 762.435C134.93 780.689 135.432 785.704 133.927 790.016C132.222 795.031 127.709 797.539 111.261 802.654C65.9276 816.895 61.7152 818.6 59.9099 822.512C58.4055 825.621 61.1134 835.149 69.9394 858.517C80.8714 887.202 89.3965 906.759 92.305 909.166C93.4082 909.969 95.9156 909.266 103.438 905.856C115.272 900.541 119.585 898.033 123.998 893.921C127.91 890.311 128.11 887.001 124.901 882.187C121.992 877.975 119.886 877.975 109.756 882.087C99.2253 886.399 96.4171 886.801 94.6118 883.992C92.0041 879.88 85.485 864.134 80.5706 849.792L75.7564 835.751L77.9629 834.046C82.3759 830.435 127.308 814.388 137.839 812.683L142.051 811.981L145.06 817.297C146.665 820.205 150.877 829.131 154.287 837.155C165.42 863.031 177.555 887.503 192.599 914.081L195.508 919.296L187.184 924.712C182.57 927.62 169.431 935.844 157.797 942.965C136.735 955.903 127.809 961.921 125.502 964.729C124.5 965.933 125.202 967.738 129.514 974.959C137.939 989.001 166.423 1028.12 178.057 1041.55L180.865 1044.76L188.086 1039.25C197.012 1032.43 209.048 1020.59 209.95 1017.58C210.753 1015.18 208.446 1011.57 204.334 1008.46C201.124 1006.05 198.818 1006.85 187.685 1014.37L179.361 1020.09L176.753 1017.58C173.744 1014.78 153.384 987.998 147.668 979.272C145.461 975.762 144.258 973.154 144.859 972.753C183.372 946.777 203.532 933.437 204.133 933.538C204.534 933.538 210.452 940.859 217.172 949.785C232.015 969.543 242.446 982.18 262.103 1004.04C270.328 1013.27 277.95 1022.1 278.853 1023.6C280.558 1026.31 280.558 1026.31 276.546 1031.32C274.239 1034.03 261.502 1047.67 248.263 1061.71C234.924 1075.76 223.891 1087.49 223.691 1087.89C223.39 1088.69 245.254 1108.75 258.092 1119.48C262.505 1123.19 271.732 1130.22 278.652 1135.13C285.572 1140.04 293.295 1145.66 295.903 1147.67L300.616 1151.18L310.144 1136.83C315.46 1128.91 320.374 1120.79 321.177 1118.78C322.581 1115.47 322.581 1114.97 320.876 1112.76C319.773 1111.46 317.366 1109.55 315.36 1108.45C310.445 1105.84 308.74 1106.95 299.914 1119.08C293.094 1128.41 292.493 1129.01 290.587 1127.71C289.484 1126.91 279.856 1119.08 269.124 1110.36C256.888 1100.33 249.567 1093.71 249.567 1092.6C249.567 1087.89 258.593 1076.66 294.298 1036.94C295.201 1035.84 298.109 1037.74 310.044 1047.57C336.221 1069.14 347.855 1077.26 377.442 1094.91C385.165 1099.42 392.185 1103.84 392.988 1104.64C394.291 1105.84 392.185 1110.46 376.539 1141.55C363.702 1167.02 358.486 1178.36 358.185 1181.67L357.584 1186.18L366.51 1190.29C384.262 1198.52 435.111 1220.08 440.828 1221.78C442.633 1222.29 443.335 1221.78 444.94 1218.57C447.447 1213.76 453.866 1194.7 455.672 1186.88C456.975 1181.16 456.975 1181.06 454.769 1180.16C450.256 1178.46 443.135 1177.85 441.731 1179.06C440.928 1179.76 438.622 1184.47 436.616 1189.69C434.61 1194.9 432.203 1200.02 431.3 1201.12C429.595 1203.13 429.495 1203.13 424.48 1201.32C417.861 1198.92 390.079 1185.08 383.66 1180.96C379.147 1178.06 378.846 1177.55 379.348 1174.75C380.651 1167.83 404.822 1122.09 410.238 1116.27L412.244 1114.17L420.368 1117.68C445.241 1128.41 481.447 1141.35 512.338 1150.57C517.052 1151.88 521.465 1153.38 522.067 1153.88C522.969 1154.49 521.766 1161.61 516.851 1183.17C508.527 1219.38 507.123 1227 507.524 1233.52L507.825 1238.73L512.338 1240.04C527.282 1244.55 556.969 1248.36 581.641 1249.06L602.302 1249.67L603.004 1232.52C603.907 1210.85 603.506 1209.25 596.886 1209.25C588.863 1209.25 585.453 1213.76 584.851 1225.29C584.349 1234.92 583.848 1237.03 582.143 1237.63C580.538 1238.23 538.114 1231.91 534.302 1230.41C526.881 1227.6 526.58 1221.28 532.397 1191.9C536.91 1169.23 539.117 1160.91 540.721 1159.9C542.727 1158.6 552.155 1159 568.403 1161.11C585.954 1163.31 611.329 1165.42 641.317 1167.22L661.476 1168.43L662.078 1202.13C662.679 1232.62 664.284 1252.17 666.19 1254.08C667.694 1255.58 736.396 1247.36 752.342 1243.75L759.062 1242.14V1236.33C759.062 1229.71 755.752 1211.95 753.345 1206.04L751.741 1202.03L745.623 1202.73C736.295 1203.73 736.295 1203.73 738.101 1219.98C739.003 1227.6 739.705 1233.92 739.605 1233.92C739.204 1234.52 712.325 1236.53 698.785 1237.03L682.136 1237.63L681.535 1235.22C680.431 1230.91 676.319 1166.22 677.122 1165.52C677.222 1165.42 684.744 1164.62 693.871 1163.71C718.644 1161.31 741.31 1157.19 784.136 1147.57C789.853 1146.26 794.968 1145.46 795.369 1145.86C796.171 1146.76 799.681 1158.1 811.015 1196.21C819.64 1225.09 819.841 1225.8 822.248 1225.49C830.973 1224.39 853.84 1216.37 888.743 1202.03C912.312 1192.5 911.911 1192.7 911.109 1188.89C910.306 1184.98 901.781 1167.93 896.867 1160.6C892.855 1154.39 891.451 1153.98 885.333 1157.19C881.321 1159.2 881.221 1159.4 881.722 1163.41C881.923 1165.72 883.528 1171.64 885.333 1176.55C888.442 1185.18 888.542 1185.58 886.737 1187.28C884.932 1189.09 853.74 1201.52 843.41 1204.63C838.395 1206.14 837.793 1206.14 836.189 1204.63C832.077 1200.92 818.938 1165.32 815.528 1148.57C813.823 1140.14 813.823 1139.84 815.628 1138.54C816.631 1137.74 824.454 1134.33 833.079 1130.92C841.805 1127.51 865.174 1116.47 885.132 1106.34L921.439 1087.99L926.654 1096.72C931.268 1104.44 966.471 1160 967.273 1161.01C968.377 1162.21 1038.38 1110.96 1041.39 1106.75C1043.5 1103.64 1043.3 1101.03 1040.59 1096.82C1037.58 1091.8 1019.53 1070.94 1018.32 1070.94C1017.72 1070.84 1014.31 1073.75 1010.8 1077.36L1004.28 1083.88L1013.71 1093.31C1018.82 1098.52 1022.94 1103.24 1022.74 1103.84C1021.83 1106.24 984.524 1134.33 978.306 1137.14C975.197 1138.64 976.801 1140.24 962.259 1119.99C950.725 1103.84 935.58 1081.07 935.58 1079.97C935.58 1078.76 941.598 1073.55 956.141 1062.32C974.595 1047.97 989.438 1035.54 1004.68 1021.6C1011.5 1015.28 1019.33 1008.06 1022.23 1005.55L1027.35 1000.94L1054.73 1026.31C1069.87 1040.25 1084.22 1052.69 1086.62 1053.99C1090.74 1056.1 1091.24 1056.2 1093.74 1054.79C1097.86 1052.49 1140.88 998.027 1147.5 986.694L1149.31 983.685L1145.5 979.473C1141.38 974.859 1132.56 968.44 1123.83 963.526C1118.62 960.617 1117.82 960.417 1115.11 961.52C1111.8 962.924 1106.08 968.841 1106.08 970.948C1106.08 972.653 1109.39 975.661 1117.61 981.278C1125.74 986.995 1126.74 988.9 1124.03 994.216C1122.53 997.325 1096.55 1031.63 1093.04 1035.14C1092.54 1035.64 1090.03 1034.03 1087.33 1031.53C1084.72 1029.02 1072.58 1018.49 1060.45 1008.16C1048.31 997.726 1038.28 988.9 1038.08 988.499C1037.88 988.098 1043.6 980.375 1050.62 971.349C1071.48 944.871 1075.99 938.452 1100.06 900.741C1105.28 892.618 1105.68 892.216 1108.59 892.718C1110.19 893.019 1127.44 901.143 1146.7 910.871C1166.06 920.499 1182.51 928.423 1183.41 928.423C1184.41 928.423 1186.42 925.514 1188.82 920.7C1198.05 901.845 1214.3 863.332 1219.51 847.786L1221.82 840.866L1219.11 838.76C1215.9 836.152 1205.27 831.939 1194.74 829.031C1185.61 826.524 1183.71 827.025 1179.8 833.043C1175.48 839.462 1176.39 841.167 1186.32 844.877C1200.36 850.293 1201.96 851.296 1201.56 854.706C1201.06 859.119 1194.04 875.969 1186.62 890.712C1180.3 902.948 1179.9 903.55 1177.39 903.048C1173.78 902.346 1144.19 888.907 1127.95 880.582L1115.21 874.163L1117.31 868.948C1128.45 841.167 1138.38 814.689 1142.89 800.547C1156.43 758.725 1154.42 763.438 1158.33 763.138C1162.05 762.837 1175.48 765.244 1209.89 772.365C1235.66 777.68 1239.17 777.981 1240.38 774.671C1242.98 767.952 1249.5 729.037 1252.01 705.769C1252.81 697.746 1253.81 689.321 1254.12 687.014C1254.72 682.2 1255.62 682.601 1238.47 680.194C1225.43 678.389 1216.3 678.288 1214 679.993C1211.59 681.698 1211.49 694.636 1213.8 696.341C1214.7 696.943 1220.22 697.746 1226.03 698.046C1231.85 698.347 1237.17 699.049 1237.67 699.551C1238.47 700.353 1238.37 703.864 1237.57 711.486C1235.86 726.129 1232.75 747.291 1231.35 753.208L1230.25 758.123L1225.53 757.421C1213.6 755.716 1170.57 745.285 1161.94 741.975C1159.74 741.173 1159.34 740.471 1159.74 738.666C1162.55 726.43 1166.06 682.701 1166.76 650.607L1167.36 625.032L1173.08 624.33C1184.91 623.026 1211.69 621.422 1233.76 620.82L1256.52 620.218V617.309C1256.52 613.097 1250.81 563.251 1248.4 546.803C1245.09 523.835 1244.89 523.233 1239.17 523.233C1235.26 523.233 1218.11 526.744 1209.89 529.351L1203.07 531.457L1203.67 535.77C1204.57 541.888 1206.38 545.298 1209.08 545.9C1210.49 546.301 1215.3 546.1 1220.02 545.499C1230.25 544.095 1232.85 544.897 1234.86 549.811C1236.36 553.422 1240.48 584.613 1240.48 592.537C1240.48 598.153 1238.47 601.062 1233.66 602.466C1230.25 603.469 1196.45 605.876 1176.29 606.678L1167.76 606.979L1165.05 585.416C1161.54 557.434 1159.14 543.493 1153.22 517.216C1146.4 487.027 1146 490.437 1156.33 485.924C1161.14 483.918 1176.89 478.602 1191.33 474.089C1205.77 469.576 1219.61 465.063 1222.02 464.06C1226.03 462.254 1226.43 461.853 1226.43 458.543C1226.43 453.729 1220.72 436.278 1211.69 413.411C1205.07 396.963 1193.84 370.986 1192.84 369.983C1192.23 369.382 1160.74 385.629 1158.53 387.836C1155.43 390.644 1155.63 393.051 1159.34 399.47L1162.35 404.886L1165.56 403.482C1184.81 395.358 1185.61 395.157 1188.42 397.966C1193.44 402.98 1209.48 442.797 1207.98 446.608C1207.18 448.715 1196.35 453.328 1175.28 460.449C1152.12 468.372 1142.69 470.679 1140.78 469.175C1140.08 468.573 1136.37 460.248 1132.66 450.72C1128.75 440.791 1118.32 418.526 1108.09 398.266L1090.33 363.063L1107.99 351.73C1117.71 345.411 1133.06 335.883 1142.19 330.367C1151.31 324.851 1159.74 319.736 1160.94 319.034L1163.25 317.63L1158.03 309.305C1141.79 283.329 1109.79 241.406 1105.18 239.902C1104.07 239.601 1101.77 240.002 1100.06 240.905C1096.95 242.509 1074.59 260.863 1072.08 263.872C1070.98 265.176 1071.58 266.279 1077.1 271.996C1080.51 275.606 1083.72 278.515 1084.12 278.515C1084.62 278.515 1088.53 275.606 1092.94 272.096C1102.37 264.474 1104.38 263.27 1106.48 264.073C1109.59 265.276 1139.18 302.485 1139.18 305.193C1139.18 309.406 1086.52 346.715 1080.71 346.715C1079 346.715 1076.19 343.405 1065.76 328.963C1054.13 312.816 1041.99 298.975 1014.11 269.689L1001.98 256.851L1022.54 234.887C1033.77 222.751 1047.41 208.209 1052.72 202.492C1058.04 196.775 1061.85 191.861 1061.35 191.459C1060.75 191.058 1055.13 186.445 1048.81 181.129C1042.59 175.914 1028.15 164.38 1016.82 155.654C1005.49 146.929 993.751 137.802 990.742 135.395L985.226 131.082L982.418 134.292C971.686 146.628 961.657 161.973 961.657 165.985C961.657 168.392 968.276 174.209 971.085 174.209C972.99 174.209 979.61 167.99 987.934 158.262L992.548 152.946L1015.11 171.3C1027.55 181.43 1037.68 190.055 1037.58 190.456C1037.48 190.858 1028.35 201.389 1017.32 213.925C1006.29 226.362 995.657 238.497 993.651 240.704L989.94 244.916L979.91 237.194C956.341 219.04 916.725 191.961 894.961 178.923L890.348 176.215L892.253 172.905C893.356 171.2 902.684 154.25 913.014 135.295C930.566 103 931.669 100.793 929.864 99.4894C924.548 95.5779 892.755 80.8347 870.389 72.0087C844.012 61.4778 843.711 61.3775 840.902 63.1828C838.295 64.9881 834.784 73.112 829.669 89.9614C825.858 102.197 825.758 101.997 835.386 104.003C841.304 105.306 841.504 105.206 843.711 102.899C845.014 101.596 847.823 96.1797 849.829 90.9644C851.935 85.7491 853.941 81.1355 854.242 80.7344C855.545 79.2299 898.873 98.1856 904.288 102.599L906.595 104.504L897.168 124.062C891.952 134.793 885.032 148.533 881.823 154.651C876.206 165.082 875.604 165.684 872.796 165.583C871.091 165.483 859.156 161.271 846.218 156.156C825.557 147.932 802.289 139.908 779.623 133.088C770.897 130.48 764.378 127.371 763.776 125.666C763.475 124.864 763.676 122.557 764.177 120.451C767.788 104.604 779.221 51.3481 779.723 47.7375L780.325 43.2243L775.41 42.121C764.879 39.6137 719.245 32.4928 693.369 29.2833C684.343 28.1801 681.936 32.9942 681.535 53.4543C681.334 67.0943 682.237 70.1032 687.151 71.9085C695.476 74.817 696.779 73.3126 699.287 58.6696C701.092 47.9381 702.095 45.8319 705.706 45.7316C715.133 45.2301 741.511 49.0413 751.039 52.1505L757.558 54.3569L757.257 59.3717C756.856 68.699 745.623 122.557 744.018 123.56C743.517 123.861 739.104 123.46 734.289 122.657C720.85 120.351 709.216 119.247 675.818 117.041C644.626 114.935 628.178 112.929 626.373 111.124C624.567 109.318 623.865 98.5868 623.063 62.5811L622.361 27.7789L619.252 27.9795C617.547 28.0798 614.337 28.2804 612.131 28.481ZM690.862 130.581C754.649 137.1 810.914 152.946 866.879 180.126C891.351 192.061 903.887 199.182 926.052 213.825C1048.11 294.462 1130.45 425.948 1150.21 571.876C1155.53 611.492 1155.63 665.05 1150.21 707.775C1134.56 832.842 1073.89 944.771 975.698 1029.82C899.474 1095.81 808.006 1136.03 702.396 1149.97C585.051 1165.52 455.973 1133.83 353.371 1064.42C308.74 1034.23 245.154 969.945 215.065 924.411C132.022 798.943 108.051 641.48 150.175 497.056C183.974 381.016 257.69 280.721 358.587 213.424C384.563 196.173 431.2 172.704 467.707 158.663C506.621 143.619 559.777 132.486 608.621 129.177C627.075 127.873 671.906 128.675 690.862 130.581Z" fill="white"/>
</g>
<g id="Union">
<path d="M721.774 985.671C726.239 984.388 729.402 987.001 731.261 993.492L749.996 1058.86C748.684 1060.78 747.17 1061.98 745.453 1062.47C740.988 1063.75 737.824 1061.13 735.952 1054.6L717.177 989.092C718.482 987.322 720.014 986.176 721.774 985.671Z" fill="white"/>
<path d="M438.431 960.665C440.749 960.139 442.659 960.168 444.153 960.758C448.471 962.465 449.4 966.46 446.927 972.738L434.585 1004.06C434.192 1005.06 433.146 1005.83 431.45 1006.36C429.768 1006.85 427.897 1007.07 425.848 1007.03C423.801 1006.99 422.023 1006.68 420.528 1006.09L438.431 960.665Z" fill="white"/>
<path d="M864.638 922.458C868.356 919.67 872.239 920.984 876.283 926.389L917.007 980.828C916.461 983.077 915.473 984.733 914.046 985.805C910.328 988.593 906.431 987.274 902.36 981.834L861.556 927.287C862.147 925.168 863.172 923.557 864.638 922.458Z" fill="white"/>
<path d="M926.066 872.647C929.222 869.234 933.284 869.818 938.234 874.404L962.918 897.277C963.702 898.007 964.03 899.26 963.909 901.034C963.756 902.778 963.294 904.599 962.516 906.494C961.736 908.391 960.794 909.941 959.702 911.122L923.909 877.946C924.26 875.595 924.976 873.828 926.066 872.647Z" fill="white"/>
<path fill-rule="evenodd" clip-rule="evenodd" d="M788.361 173C989.728 235.447 1136 423.349 1136 645.459C1136 918.587 914.829 1140 642 1140C447.287 1140 278.911 1027.21 198.44 863.35C194.781 860.823 191.219 857.235 189.998 854.818C189.367 853.519 189.167 852.652 189.167 850.82C189.19 848.968 189.534 847.613 190.413 846.205C163.16 784.856 148 716.932 148 645.459C148 618.527 150.173 592.1 154.312 566.336C171.334 661.272 221.724 744.603 292.874 803.786C299.25 805.173 305.517 806.778 311.729 808.656C324.765 812.625 338.432 817.633 347.079 821.602C348.343 822.169 349.479 822.635 349.612 822.635C349.779 822.631 350.105 822.064 350.403 821.401C350.669 820.7 351.534 818.661 352.265 816.826C354.227 812.157 356.032 804.89 357.961 793.953C360.887 777.377 362.151 772.067 364.246 767.431C365.442 764.831 367.468 761.828 369.164 760.16C371.757 757.659 381.933 751.917 388.219 749.414C389.417 748.947 389.951 748.65 389.385 748.717C388.841 748.817 385.383 749.08 381.733 749.28C376.58 749.613 371.888 749.62 360.949 749.32C353.174 749.087 345.035 748.749 342.831 748.582C329.196 747.448 318.249 745.244 304.747 740.842C293.405 737.139 284.887 733.537 275.708 728.567C265.931 723.231 263.607 720.929 262.642 715.46C262.343 713.726 262.71 712.194 263.674 711.127L264.532 710.228H269.986C276.504 710.228 281.262 710.585 291.936 711.919C300.716 713.019 303.779 713.695 315.387 717.231C323.002 719.532 326.831 720.925 331.32 722.959C333.748 724.06 333.58 724.598 331.119 723.764C330.222 723.464 327.664 722.795 325.37 722.262C323.076 721.728 317.849 720.29 313.725 719.123C301.32 715.52 296.426 714.59 285.45 713.689C278.834 713.123 274.911 713.197 270.522 713.931L268.096 714.32L268.297 715.527C268.532 717.061 270.821 719.295 276.338 723.295C282.358 727.664 286.652 730.269 293.504 733.705C311.963 742.944 336.679 747.321 363.12 745.953C372.684 745.487 383.641 744.511 383.341 744.209C383.175 744.076 380.376 742.975 377.083 741.741C363.813 736.737 356.724 732.1 348.808 723.228C341.062 714.525 335.081 705.553 331.655 697.484C330.393 694.485 328.954 691.352 328.52 690.481C327.522 688.546 327.494 688.075 328.359 687.208C329.323 686.24 330.155 686.372 333.947 688.039C335.808 688.872 339.027 690.109 341.089 690.843L344.882 692.144L339.803 681.935C335.346 672.996 334.38 670.758 332.151 664.187C330.755 660.054 329.261 655.488 328.828 654.018C327.963 651.217 326.6 642.98 326.067 637.41C325.768 634.408 325.798 633.935 326.563 631.4C327.527 628.033 328.657 626.826 330.717 626.825C331.449 626.825 332.619 627.129 333.317 627.496L334.617 628.127L334.778 626.892C334.878 626.219 335.149 624.16 335.381 622.331C335.779 618.868 336.57 616.764 337.632 616.16C338.929 615.46 341.161 615.792 343.555 616.992C347.079 618.759 353.359 624.888 352.533 625.725C352.4 625.859 350.906 624.528 349.21 622.761C345.985 619.426 343.154 617.488 341.491 617.488C338.402 617.489 338.003 618.329 336.707 626.825C336.574 627.825 336.372 628.83 336.305 628.999C336.239 629.199 337.774 630.732 339.736 632.433C344.924 636.903 352.532 645.515 355.991 650.852C356.456 651.519 356.367 650.714 355.602 646.345C354.571 640.474 353.835 631.998 354.034 628.462C354.235 624.763 355.73 623.366 358.256 624.531L359.622 625.135L360.788 623.901C361.453 623.234 362.88 621.194 363.978 619.393C365.102 617.636 366.128 616.076 366.336 615.959C367.134 615.459 366.81 616.293 364.983 619.259C363.918 621.06 362.844 623.194 362.611 624.062C362.378 624.962 362.053 625.833 361.887 626.034C361.721 626.267 362.748 627.298 364.942 628.999C366.772 630.433 369.205 632.567 370.303 633.734C373.824 637.532 378.102 643.631 376.588 642.682C376.421 642.582 375.218 641.11 373.988 639.409C370.861 635.173 368.33 632.507 365.17 630.139C362.146 627.873 358.396 625.836 357.13 625.833C355.999 625.833 355.659 626.731 355.227 631.4C354.795 635.836 355.131 639.477 356.661 648.183C357.525 653.083 357.965 654.648 359.328 657.882C361.055 661.98 361.118 662.188 360.654 662.188C360.488 662.188 360.089 661.486 359.756 660.618C359.425 659.788 359.087 659.255 359.019 659.451C358.886 659.852 360.384 663.526 362.879 668.963L364.514 672.558L364.715 671.19C364.912 669.524 364.417 653.855 364.085 652.288C363.752 650.62 364.212 648.277 365.143 647.176C366.84 645.178 369.473 646.01 373.13 649.645L375.489 652.019L375.851 649.041C376.051 647.439 376.619 644.805 377.15 643.273C378.181 640.007 379.577 638.239 382.202 636.672C383.533 635.872 383.904 635.501 383.904 634.767C383.907 634.295 384.508 632.561 385.271 630.93C386.003 629.329 387.126 626.694 387.79 625.095L388.956 622.197L387.067 619.863C384.838 617.094 382.467 615.192 379.174 613.558C377.385 612.627 376.724 612.124 376.655 611.559C376.555 610.925 376.683 610.821 377.646 610.821C379.242 610.821 384.836 614.318 387.63 617.086C388.86 618.287 389.922 619.225 389.988 619.125C390.094 619.041 390.985 616.649 392.012 613.826C393.041 610.997 394.237 607.831 394.638 606.823C395.368 604.926 397.199 602.595 398.364 602.155C399.394 601.721 399.797 601.751 401.124 602.45C402.853 603.35 405.484 606.248 407.878 609.882C410.339 613.651 414.597 622.235 414.431 623.069C414.352 623.405 413.292 621.572 411.871 618.656C409.478 613.689 409.405 613.624 405.747 609.989C403.687 607.956 401.462 606.025 400.762 605.656L399.462 604.985L398.699 605.951C397.401 607.587 395.079 612.358 392.253 619.192C389.459 625.997 388.458 629.239 388.125 632.742C387.927 634.6 387.959 634.833 388.487 634.834C389.319 634.834 391.755 636.5 393.285 638.067C394.981 639.802 397.399 644.842 396.568 644.842C396.364 644.828 395.803 643.962 395.308 642.937C393.578 639.437 389.981 636.511 387.388 636.511C385.691 636.515 381.912 638.541 380.514 640.174C378.618 642.375 377.787 645.317 377.753 649.953C377.72 652.552 377.544 653.986 377.311 654.152C377.056 654.335 377.79 656.172 379.71 660.055C382.536 665.723 384.894 671.224 384.896 672.062C384.896 673.062 384.329 672.428 383.73 670.76C382.797 668.089 378.711 659.392 376.748 655.856C374.587 651.988 372.724 649.786 370.463 648.518C368.435 647.35 366.966 647.242 366.068 648.209C365.47 648.876 365.438 649.557 365.438 658.66C365.472 665.192 365.608 669.16 365.907 670.828C366.406 673.629 366.642 673.498 367.274 669.929C367.973 665.793 370.167 664.122 372.728 665.824C374.857 667.226 383.029 676.752 383.77 678.662C384.269 679.963 383.203 678.999 381.707 676.797C380.809 675.463 378.577 672.869 376.748 671.002C374.158 668.337 373.126 667.5 371.964 667.165C370.567 666.732 370.491 666.754 369.726 667.621C368.762 668.755 367.365 673.133 366.899 676.502C366.401 679.972 366.773 685.746 367.77 690.481C368.899 695.711 369.331 696.981 371.656 701.978C373.585 706.081 373.655 706.254 373.09 706.888C372.492 707.553 371.396 707.755 370.732 707.29C370.532 707.157 370.235 706.515 370.102 705.882C369.999 705.235 369.068 701.039 368.105 696.545C365.877 686.472 365.303 681.034 366.001 676.931C366.265 675.441 366.405 674.212 366.309 674.195C366.21 674.195 365.676 674.438 365.143 674.705C363.416 675.604 363.248 675.396 361.619 669.862C361.12 668.127 360.215 665.419 359.649 663.852C359.052 662.285 358.293 659.858 357.961 658.392C357.296 655.624 355.097 651.521 352.172 647.619C350.076 644.851 341.292 636.011 338.664 634.043C336.236 632.208 333.012 630.601 331.548 630.434C330.652 630.335 330.525 630.471 329.927 632.004C329.361 633.505 329.325 634.37 329.458 641.341C329.624 648.345 329.726 649.379 330.623 653.347C333.683 666.655 336.538 674.363 341.625 682.901C344.286 687.404 344.321 687.439 343.756 684.337C343.523 682.901 342.624 678.33 341.826 674.195C339.57 662.613 338.94 658.306 339.334 657.493C339.832 656.593 340.996 656.182 341.96 656.648C344.155 657.648 357.284 675.528 360.48 681.935C363.339 687.671 366.267 696.707 366.269 699.912C366.269 702.08 364.776 698.416 362.249 690.213C361.384 687.344 360.149 684.303 358.885 681.868C355.161 674.698 348.745 665.596 344.788 661.893C342.626 659.858 342.001 659.489 342.001 660.256C342.001 661.893 342.823 668.723 343.488 672.692C344.586 679.197 345.35 682.208 347.146 686.711C348.741 690.81 348.981 692.314 348.084 692.815C347.652 693.082 348.212 693.48 351.006 694.881C358.09 698.45 368.537 705.589 372.728 709.692C375.217 712.188 378.569 716.275 378.584 716.922C378.584 717.156 377.787 716.622 376.856 715.688C372.033 711.085 361.081 702.444 356.259 699.442C349.511 695.275 345.912 693.776 337.766 691.742C335.254 691.112 332.906 690.485 332.553 690.347C332.021 690.147 331.945 690.215 332.111 690.682C332.244 690.989 332.522 692.245 332.687 693.473C333.485 698.509 336.4 705.323 340.259 711.194C343.884 716.731 350.945 724.933 355.401 728.835C360.257 733.104 367.774 737.475 374.591 740.01C379.813 741.978 393.771 744.405 395.871 743.74C396.535 743.54 396.472 743.414 395.147 742.318C389.427 737.481 386.988 734.309 383.663 727.306C381.003 721.737 379.579 717.429 378.249 711.06C376.087 700.786 376.747 692.637 380.273 685.866C381.67 683.132 384.337 680.54 385.7 680.54C387.097 680.542 389.625 681.699 391.918 683.465C393.215 684.432 394.317 685.208 394.384 685.142C394.417 685.075 394.675 684.574 394.973 684.042C395.97 682.075 398.961 678.898 400.226 678.461C400.393 678.394 400.325 677.562 400.025 676.395C399.759 675.325 399.327 673.062 399.127 671.364C398.695 668.029 398.936 667.192 400.199 667.192C401.495 667.192 401.625 667.966 401.392 673.135L401.191 678.032H404.756C406.879 678.032 408.838 678.195 409.607 678.461C410.937 678.961 413.804 680.802 415.168 682.07L416.026 682.874L417.821 680.299C420.348 676.797 423.678 673.466 425.607 672.531C430.063 670.397 435.054 672.895 438.713 679.132C440.376 681.9 440.443 683.036 438.847 680.835C437.483 678.968 433.728 675.726 431.865 674.825C427.475 672.657 423.84 674.359 418.652 680.996C415.825 684.665 411.967 691.278 411.335 693.513C411.036 694.545 410.745 695.579 410.679 695.78C410.446 696.447 408.579 696.313 408.213 695.579C407.748 694.745 408.581 693.243 412.139 688.308C414.326 685.284 414.864 684.343 414.605 683.907C413.974 682.874 410.15 680.24 408.816 679.869C406.989 679.37 403.331 679.364 401.566 679.829C399.871 680.329 396.637 683.334 395.871 685.168L395.442 686.268L398.23 688.804C405.946 695.742 411.74 702.323 414.833 707.76C417.094 711.729 419.856 718.361 420.421 721.296C420.887 723.764 420.88 724.201 420.381 726.836C420.082 728.4 419.458 730.495 418.96 731.465C418.029 733.433 414.595 738.212 413.265 739.447C412.334 740.31 410.868 740.482 410.236 739.849C409.472 739.082 409.849 737.942 411.845 735.006C414.338 731.305 415.498 728.101 415.731 724.234C415.897 721.632 415.831 721.092 414.833 718.224C413.469 714.223 410.083 707.294 408.253 704.822C403.863 698.818 393.712 690.305 386.196 686.268L383.663 684.9L382.805 685.799C381.575 687.066 379.707 691.34 379.241 693.875C378.709 696.776 378.682 704.081 379.214 707.384C380.744 717.191 385.869 729.04 391.556 735.878C393.059 737.684 398.409 742.752 400.668 744.518C402.025 745.581 401.463 745.839 399.704 744.974C398.872 744.573 398.135 744.249 398.069 744.249C398.005 744.255 398.132 744.748 398.297 745.376C398.529 746.075 398.966 746.61 399.529 746.812C401.39 747.511 402.16 751.376 400.869 753.479C400.138 754.713 400.298 754.687 396.541 754.753C393.715 754.82 387.066 756.286 382.444 757.919C377.754 759.521 372.858 762.793 370.396 765.861C366.339 770.965 364.745 776.575 361.619 796.287C359.823 807.792 358.318 814.966 356.822 819.335L356.326 820.73L358.885 818.235C363.309 813.932 367.004 811.024 375.717 804.953C379.042 802.652 383.038 799.512 384.668 797.978C387.594 795.175 392.084 789.846 393.781 787.178C396.341 783.142 400.126 774.631 402.92 766.626C403.451 765.06 404.127 763.535 404.394 763.232C404.66 762.932 405.093 761.694 405.359 760.428C405.591 759.198 405.888 758.133 405.989 758.027C406.487 757.493 407.144 758.523 408.307 761.689C409.571 765.192 409.584 765.199 409.218 767.9C408.752 771.535 407.61 774.739 405.05 779.907C399.863 790.278 395.334 796.479 386.223 805.651C382.233 809.652 381.076 810.629 375.757 814.13C372.465 816.297 368.733 818.992 367.435 820.126C363.69 823.483 359.489 827.571 359.622 827.733C359.722 827.799 361.347 828.705 363.241 829.772C370.424 833.807 380.738 841.11 388.487 847.614C393.044 851.45 400.827 859.159 404.22 863.162C406.601 866.003 408.579 869.071 409.633 871.413C411.089 871.953 412.552 872.472 414.015 872.996L414.096 866.758C414.129 862.588 414.332 855.955 414.498 851.987C415.096 839.113 415.292 810.997 414.86 796.086L414.431 782L415.329 778.405C415.794 776.404 416.389 773.432 416.655 771.831C416.888 770.13 417.463 768.13 417.995 767.096C418.46 766.098 418.952 764.8 419.054 764.198L419.228 763.098L416.267 763.192C412.575 763.325 411.51 762.956 411.51 761.622C411.51 760.456 411.944 760.185 416.066 758.751C417.594 758.218 418.752 757.718 418.652 757.651C418.519 757.54 416.055 756.982 413.171 756.39C407.65 755.289 406.585 754.846 405.653 753.412C405.157 752.649 405.156 752.514 405.653 751.748C406.118 751.05 406.455 750.917 407.784 750.917C408.649 750.917 410.117 751.147 411.014 751.413C411.95 751.714 414.937 752.417 417.66 752.983C422.283 753.983 423.117 754.056 428.971 754.056C434.418 754.056 435.651 753.95 437.909 753.318C444.96 751.35 452.915 746.111 455.343 741.808C456.272 740.175 456.306 739.246 455.41 739.245C455.044 739.245 451.487 740.083 447.53 741.083C443.539 742.084 438.043 743.408 435.282 744.075C432.556 744.709 429.499 745.485 428.502 745.752C427.537 746.018 425.278 746.282 423.516 746.382C421.756 746.449 419.064 746.753 417.5 747.053C415.936 747.353 413.496 747.677 412.032 747.778C409.61 748.01 409.447 747.975 409.58 747.375C409.683 746.846 410.288 746.639 413.828 746.141C418.947 745.407 420.583 744.977 424.039 743.444C425.536 742.777 428.24 741.873 430.069 741.472L433.393 740.775L433.219 739.742C432.987 738.208 434.058 737.037 436.019 736.737C438.478 736.403 440.273 735.44 442.465 733.343C448.019 728.04 452.377 719.129 456.335 704.889C457.665 700.152 457.699 699.917 457.366 699.684C457.204 699.579 457.378 698.905 457.742 698.208C459.536 694.662 460.891 680.899 460.06 674.798C459.495 670.596 457.968 665.42 456.871 663.919C456.373 663.253 455.939 662.657 455.906 662.591C455.639 662.225 453.641 663.52 451.845 665.287C449.018 667.989 446.794 671.43 443.269 678.501C435.221 694.711 429.867 711.387 427.805 726.863C427.439 729.697 427.135 733.202 427.135 734.671C427.135 736.672 427.039 737.272 426.773 737.005C426.508 736.735 426.439 734.899 426.572 730.834C426.738 724.131 427.469 720.025 430.096 711.02C434.153 696.978 437.051 689.502 443.47 676.261C448.225 666.491 450.393 662.957 453.319 660.122C455.912 657.689 457.107 657.387 459.135 658.754C461.031 660.022 462.232 662.558 463.33 667.46C464.061 670.895 464.161 672.168 464.161 677.871C464.16 681.439 463.992 685.275 463.826 686.376C463.629 687.459 463.498 688.378 463.558 688.469C463.757 688.702 479.827 664.221 481.89 660.551C483.415 657.759 484.507 656.226 485.173 655.789C486.436 655.022 486.54 655.017 487.504 656.017C488.269 656.751 488.342 657.053 488.308 659.921C488.275 665.25 487.872 668.485 487.076 669.258L486.406 669.929L485.843 669.057C485.345 668.324 485.309 667.955 485.642 666.722C486.073 665.017 486.134 658.884 485.736 658.284C485.297 657.599 483.305 659.968 479.987 665.193C478.323 667.863 473.767 674.771 469.909 680.54C464.257 688.976 462.798 691.415 462.432 692.882C461.632 696.289 457.997 708.35 456.335 713.22C452.643 723.926 447.461 734.236 444.301 737.206C443.835 737.673 443.43 738.146 443.43 738.28C443.451 738.437 444.844 738.07 446.525 737.475C449.048 736.609 449.619 736.275 449.688 735.677C449.754 735.177 450.352 734.6 451.35 734C454.009 732.466 456.438 730.435 460.261 726.501C465.981 720.631 468.518 717.264 474.104 707.894C477.994 701.425 479.952 697.617 480.817 694.948C481.149 694.017 481.548 693.209 481.715 693.204C482.181 693.204 482.117 693.511 480.523 698.409C478.228 705.481 474.935 711.262 467.618 721.202C466.354 722.903 463.459 726.395 461.199 728.929C458.937 731.464 457.072 733.611 457.072 733.678C457.111 733.71 457.697 733.732 458.371 733.732C461.43 733.734 462.924 737.546 461.494 741.781C460.529 744.648 458.433 746.989 454.311 749.723C447.826 753.991 440.369 757.549 435.979 758.416L435.014 758.617L435.818 759.489C436.251 759.956 437.981 761.327 439.611 762.561C440.509 763.245 441.824 764.401 443.336 765.835L452.127 774.635C460.727 782.79 466.816 784.937 478.687 784.938C491.956 784.938 506.258 781.936 518.929 776.5C526.73 773.137 539.275 766.754 538.561 766.465C538.295 766.398 537.496 766.128 536.832 765.928C536.134 765.728 535.559 765.357 535.559 765.123C535.557 763.924 534.504 761.272 534.005 761.26C533.572 761.26 533.503 761.527 533.669 762.628L533.83 764.023L531.807 761.998C526.319 756.627 518.968 752.149 506.828 746.879C493.791 741.242 480.748 738.402 474.894 739.97C473.535 740.336 473.333 740.313 472.67 739.715C472.071 739.181 471.536 739.071 469.507 739.138C467.35 739.205 467.011 739.146 466.546 738.481C465.98 737.68 465.919 736.639 466.385 735.905C466.723 735.372 470.154 734.971 476.368 734.738C480.791 734.604 486.107 733.798 490.828 732.565C501.369 729.797 521.221 722.066 528.242 717.996C531.8 715.895 540.214 710.257 544.738 706.888C550.093 702.918 554.72 698.046 554.454 696.679C554.22 695.412 552.092 695.076 544.712 695.109C536.829 695.143 532.232 695.606 516.999 698.074C508.372 699.438 506.436 699.614 507.19 698.852C508.154 697.885 551.664 692.006 554.99 692.372C557.45 692.673 558.817 693.779 559.05 695.713C559.216 696.813 559.007 697.512 557.844 699.778C556.713 702.079 556.08 702.887 553.918 704.755C547.467 710.323 540.577 714.165 524.45 721.202C513.714 725.902 511.817 726.673 500.315 730.807C495.462 732.541 490.406 734.344 489.072 734.845C487.753 735.308 486.788 735.799 486.901 735.905C487.068 736.038 488.541 736.309 490.171 736.509C496.689 737.31 505.543 740.448 525.093 748.918C535.03 753.218 541.053 756.983 542.353 759.717C542.952 760.985 543.079 764.261 542.514 764.828C542.284 765.061 542.516 765.232 543.278 765.365C543.875 765.465 544.938 765.796 545.636 766.063C547 766.663 547.106 767.028 546.507 769.43C545.975 771.565 544.272 772.493 537.221 774.595C534.026 775.563 527.441 777.737 522.587 779.438C501.439 786.841 492.027 789.17 478.526 790.304C466.42 791.338 459.797 789.313 452.314 782.308C451.383 781.475 447.225 776.599 443.001 771.496C438.811 766.426 434.456 761.456 433.326 760.455L431.302 758.684L426.277 758.228L421.252 757.759L421.413 758.993C421.578 760.457 421.021 761.349 420.126 761.085C419.394 760.852 415.903 761.564 415.637 761.998C415.411 762.363 417.098 762.323 418.625 761.89C420.185 761.458 422.142 761.757 422.15 762.454C422.15 762.72 421.777 763.653 421.346 764.52C420.614 765.954 420.592 766.195 421.024 767.028C421.323 767.538 421.818 770.767 422.217 774.528L422.887 781.101L422.016 787.782C420.653 798.183 420.221 802.386 419.523 812.788C418.426 828.432 418.187 833.575 417.821 850.82C417.655 859.79 417.425 868.426 417.325 869.964C417.159 872.396 417.229 872.738 417.66 872.54C417.96 872.44 420.09 871.237 422.418 869.87C435.223 862.398 450.46 855.519 471.812 847.614C493.726 839.477 511.45 834.869 535.559 831.167C548.23 829.199 559.044 828.432 570.052 828.766C580.595 829.066 593.807 830.172 596.934 831.006C600.391 831.941 603.51 834.548 603.942 836.882C604.737 841.15 601.875 846.022 596.157 850.123C592.67 852.621 591.945 853.291 592.311 853.624C592.966 854.238 598.801 857.894 601.356 859.258C606.575 862.126 611.062 866.395 613.457 870.796C614.454 872.663 614.555 873.1 614.556 875.665C614.556 878.2 614.428 878.775 613.497 880.71C611.535 884.678 606.309 889.015 600.257 891.75C598.901 892.361 597.323 892.972 595.594 893.602C795.032 870.455 949.852 700.818 949.852 494.953C949.852 363.139 886.378 246.173 788.361 173ZM570.829 995.356L570.655 999.636C572.929 999.729 574.397 1000.53 575.051 1002.04C575.75 1003.5 576.032 1005.93 575.895 1009.32L573.349 1072.05C573.168 1076.52 572.073 1079.81 570.066 1081.93C569.273 1082.74 568.32 1083.44 567.225 1084.02C566.175 1084.6 565.298 1084.88 564.585 1084.85L566.608 1089.37C566.653 1089.37 576.146 1085.68 595.084 1078.3L595.245 1074.41C593.24 1074.33 591.83 1073.77 591.024 1072.71C590.264 1071.6 589.933 1069.81 590.032 1067.36L592.646 1002.82C592.836 998.125 593.812 994.692 595.553 992.526C597.478 990.236 599.443 989.131 601.45 989.212L599.426 984.705L570.829 995.356ZM624.258 998.335L624.713 1002.6C626.974 1002.37 628.54 1002.94 629.403 1004.33C630.307 1005.68 630.94 1008.05 631.293 1011.43L637.484 1070.74C637.763 1073.4 638.71 1075.88 640.338 1078.18C641.965 1080.44 643.881 1082.4 646.074 1084.06C648.308 1085.67 650.458 1086.89 652.519 1087.71C655.521 1088.92 657.889 1089.43 659.622 1089.25C661.399 1089.06 668.021 1085.79 679.482 1079.42L679.079 1075.62C673.174 1076.24 667.809 1076.24 662.985 1075.62C660.797 1075.31 658.464 1073.91 656.004 1071.42C654.613 1070.12 653.54 1065.81 652.774 1058.48L646.931 1002.57C646.444 997.905 646.914 994.372 648.325 991.976C649.901 989.428 651.686 988.04 653.685 987.831L651.019 983.658L624.258 998.335ZM491.779 974.979L491.203 977.943C494.744 979.371 495.977 982.831 494.902 988.313L481.139 1058.41C480.227 1063.06 478.755 1066.33 476.704 1068.2C474.45 1070.17 472.324 1070.96 470.352 1070.58L471.678 1075.34L501.575 1069.13L502.392 1064.98C500.113 1064.53 498.763 1063.51 498.345 1061.92C497.929 1060.34 498.035 1057.9 498.681 1054.61L504.135 1026.84L516.235 1029.22L508.517 1068.58C508.199 1070.2 508.71 1072.1 510.058 1074.28C511.404 1076.46 512.986 1078.13 514.801 1079.31L529.917 1074.29L530.507 1071.33C526.972 1069.86 525.741 1066.4 526.808 1060.96L532.41 1032.4L539.767 1030.36L540.423 1027.07L533.71 1025.74L539.74 995.008C540.644 990.402 542.124 987.156 544.176 985.282C546.427 983.311 548.543 982.521 550.514 982.907L549.201 978.145L519.317 984.289L518.487 988.501C520.722 988.941 522.049 989.961 522.467 991.547C522.935 993.097 522.839 995.538 522.185 998.871L517.535 1022.56L512.148 1021.5L504.724 1023.88L513.193 980.694C513.51 979.071 512.998 977.169 511.652 974.992C510.305 972.813 508.712 971.139 506.895 969.961L491.779 974.979ZM729.586 970.109C728.985 970.282 727.611 971.075 725.459 972.483C723.307 973.892 720.824 975.628 718.022 977.689C715.253 979.692 712.532 981.703 709.861 983.725C707.189 985.748 704.973 987.503 703.214 988.984C701.499 990.4 700.662 991.241 700.721 991.506L720.863 1061.79C721.872 1065.31 723.465 1068.34 725.633 1070.88C727.802 1073.43 730.039 1075.33 732.347 1076.57C734.639 1077.77 736.492 1078.16 737.908 1077.75C738.767 1077.51 740.297 1076.68 742.491 1075.26C744.717 1073.78 747.2 1072.05 749.928 1070.05C752.699 1068.05 755.358 1066.06 757.902 1064.07C760.434 1062.04 762.516 1060.3 764.147 1058.85C765.818 1057.4 766.619 1056.53 766.545 1056.28L745.278 982.062C744.859 980.603 743.95 979.147 742.558 977.689C741.194 976.173 739.639 974.804 737.895 973.583C736.195 972.351 734.585 971.411 733.057 970.78C731.517 970.106 730.359 969.887 729.586 970.109ZM798.948 944.888C798.428 945.147 797.341 946.172 795.678 947.947C794.036 949.662 792.154 951.759 790.05 954.252C787.946 956.745 785.917 959.285 783.953 961.859C782.009 964.371 780.453 966.617 779.289 968.593C778.167 970.546 777.748 971.828 778.043 972.43L790.733 998.026C792.977 1002.55 795.598 1006.01 798.586 1008.42C801.613 1010.81 804.172 1011.49 806.251 1010.46C806.771 1010.2 808.821 1007.93 812.389 1003.66C815.854 999.493 817.954 997.23 818.674 996.872C820.712 995.863 822.657 997.217 824.503 1000.94L838.212 1028.57C838.788 1029.73 838.862 1030.85 838.44 1031.91C838.037 1032.91 837.415 1033.62 836.577 1034.03C835.417 1034.61 832.323 1032.6 827.304 1028.01C822.222 1023.5 819.056 1021.54 817.816 1022.16C817.41 1022.37 815.307 1025.21 811.504 1030.69C810.742 1031.77 810.022 1032.75 809.36 1033.63C808.74 1034.49 808.158 1035.23 807.618 1035.84L808.838 1038.3C809.638 1037.9 810.717 1038.11 812.054 1038.89C813.368 1039.63 814.837 1040.67 816.449 1042.01C818.043 1043.32 819.646 1044.64 821.26 1045.99C822.893 1047.27 824.414 1048.29 825.83 1049.03C827.224 1049.73 828.367 1049.87 829.247 1049.43C829.807 1049.16 830.975 1048.09 832.758 1046.25C834.6 1044.44 836.706 1042.25 839.069 1039.68C841.413 1037.07 843.673 1034.42 845.837 1031.75C848.042 1029.06 849.799 1026.71 851.103 1024.71C852.423 1022.66 852.931 1021.31 852.617 1020.67L839.619 994.471C837.156 989.506 834.406 985.832 831.377 983.444C828.33 981.017 825.806 980.291 823.806 981.284C822.846 981.761 820.492 984.26 816.744 988.77C813.096 993.279 811.087 995.62 810.727 995.799C809.247 996.532 807.692 995.258 806.064 991.976L792.449 964.528C791.237 962.086 791.372 960.488 792.851 959.752C794.011 959.176 796.707 960.838 800.931 964.729C805.174 968.659 807.919 970.322 809.159 969.706C809.519 969.527 811.586 966.711 815.377 961.282C816.219 960.165 816.98 959.168 817.642 958.29C818.302 957.414 818.884 956.674 819.384 956.077L818.164 953.622C816.524 954.437 814.67 954.122 812.617 952.696C812.159 952.376 811.624 951.995 811.008 951.556C810.432 951.096 809.773 950.627 809.039 950.147C808.302 949.665 807.626 949.22 807.028 948.819C806.471 948.398 805.993 948.033 805.595 947.732C802.167 945.344 799.949 944.393 798.948 944.888ZM420.555 945.68L419.456 948.484C422.683 950.527 423.272 954.151 421.225 959.35L395.147 1025.55C393.411 1029.96 391.366 1032.91 389.01 1034.38C386.44 1035.91 384.219 1036.31 382.35 1035.58L382.779 1040.5L413.305 1039.79L414.86 1035.86C412.699 1035 411.553 1033.76 411.429 1032.13C411.305 1030.49 411.862 1028.11 413.091 1024.99L418.17 1012.09C420.65 1012.25 423.623 1012.39 427.081 1012.5C430.555 1012.58 433.98 1012.6 437.346 1012.58C440.727 1012.52 443.558 1012.42 445.829 1012.26C448.133 1012.12 449.351 1011.89 449.473 1011.6L465.125 971.853C465.682 970.438 465.865 968.723 465.648 966.715C465.489 964.683 465.081 962.654 464.442 960.624C463.801 958.593 463.073 956.852 462.244 955.419C461.474 953.963 460.751 953.106 460.087 952.843C458.757 952.319 452.275 953.052 440.642 955.044C441.198 953.63 440.97 951.693 439.972 949.235C438.973 946.774 437.766 944.846 436.341 943.466L420.555 945.68ZM869.891 904.522C868.214 904.44 867.051 904.644 866.407 905.125C865.906 905.5 864.901 906.733 863.391 908.815C861.88 910.897 860.173 913.404 858.286 916.327C856.409 919.187 854.584 922.044 852.805 924.886C851.028 927.724 849.58 930.148 848.463 932.157C847.363 934.09 846.88 935.177 847.029 935.404L890.822 993.921C893.018 996.855 895.573 999.133 898.501 1000.74C901.429 1002.34 904.198 1003.31 906.796 1003.65C909.369 1003.95 911.244 1003.66 912.424 1002.78C913.138 1002.24 914.27 1000.92 915.815 998.818C917.37 996.646 919.078 994.139 920.92 991.305C922.798 988.445 924.568 985.629 926.24 982.867C927.886 980.069 929.223 977.701 930.234 975.77C931.278 973.815 931.721 972.725 931.56 972.51L885.328 910.719C884.418 909.503 883.048 908.462 881.228 907.594C879.416 906.663 877.474 905.94 875.412 905.42C873.385 904.874 871.543 904.568 869.891 904.522ZM927.661 853.839C926.028 854.029 924.97 854.387 924.485 854.912C923.514 855.97 921.837 862.285 919.473 873.854C918.359 872.822 916.482 872.313 913.831 872.352C911.178 872.391 908.946 872.837 907.144 873.667L903.473 889.188L905.684 891.227C908.757 888.956 912.347 889.724 916.444 893.521L968.613 941.856C972.087 945.076 974.086 948.058 974.603 950.791C975.097 953.746 974.655 955.968 973.29 957.445L978.047 958.827L988.459 930.078L985.364 927.207C983.786 928.913 982.201 929.535 980.633 929.058C979.067 928.58 977.058 927.2 974.603 924.926L964.419 915.495C965.469 913.24 966.674 910.511 968.037 907.325C969.366 904.111 970.637 900.933 971.843 897.787C973.016 894.609 973.942 891.929 974.616 889.751C975.321 887.541 975.556 886.329 975.327 886.116L944.01 857.099C942.895 856.066 941.362 855.277 939.413 854.751C937.463 854.162 935.425 853.804 933.302 853.664C931.179 853.525 929.295 853.586 927.661 853.839ZM569.65 830.067C547 829.368 509.946 835.909 482.077 845.481C469.274 849.884 451.954 856.758 441.245 861.727C436.524 863.928 421.23 871.795 418.062 873.667C417.738 873.858 417.504 874.011 417.325 874.19C458.551 888.526 502.832 896.325 548.933 896.325C558.926 896.325 568.832 895.944 578.642 895.225C585.58 892.917 591.111 890.361 595.902 887.176C601.917 883.142 604.971 879.873 605.671 876.739C605.97 875.405 605.902 875.106 604.706 872.674C602.146 867.572 597.762 864.63 590.448 863.162C584.993 862.028 583.153 861.486 581.59 860.452C579.466 859.084 577.833 856.19 577.798 853.758C577.798 852.324 579.902 850.52 585.49 847.185C590.038 844.487 595.749 839.96 595.768 839.082C595.768 837.814 593.602 835.875 590.609 834.44C584.589 831.572 578.697 830.334 569.65 830.067ZM975.407 810.923L979.025 813.231C980.249 811.309 981.674 810.44 983.3 810.628C984.913 810.756 987.151 811.74 990.014 813.566L1010.36 826.539L1007.41 831.18L1006.9 838.961L969.832 815.323C968.439 814.434 966.481 814.218 963.963 814.68C961.445 815.141 959.302 816.005 957.544 817.269L956.7 833.193L959.246 834.816C961.864 832.034 965.529 832.137 970.234 835.138L1030.42 873.532C1034.41 876.08 1036.9 878.663 1037.89 881.26C1038.91 884.078 1038.88 886.338 1037.8 888.034L1042.72 888.544L1047.84 858.4L1044.27 856.133C1043.02 858.093 1041.58 858.979 1039.96 858.789C1038.33 858.598 1036.11 857.598 1033.28 855.797L1009.44 840.584L1016.06 830.174L1049.86 851.733C1051.25 852.62 1053.2 852.836 1055.72 852.376C1058.24 851.915 1060.38 851.052 1062.14 849.787L1062.98 833.863L1060.43 832.24C1057.78 834.998 1054.12 834.897 1049.45 831.918L1024.92 816.263L1025.71 808.656L1022.89 806.858L1019.21 812.627L992.828 795.791C988.873 793.268 986.399 790.701 985.404 788.104C984.393 785.286 984.431 783.025 985.511 781.329L980.593 780.819L975.407 810.923ZM295.34 805.839C327.008 831.757 362.705 852.922 401.352 868.247C400.817 866.947 400.183 865.487 399.395 863.833C395.903 856.562 390.151 850.122 380.34 842.717C376.582 839.849 366.906 833.548 362.182 830.845L358.256 828.631L355.133 830.469C351.509 832.603 350.21 832.939 348.714 832.173C346.619 831.106 346.489 829.64 348.151 826.472L349.317 824.271L346.45 822.93C333.108 816.752 312.159 809.808 295.34 805.839ZM1005.04 736.375L1004.5 766.908L1008.43 768.638C1009.34 766.551 1010.62 765.479 1012.26 765.419C1013.87 765.299 1016.23 765.929 1019.33 767.297L1076.74 792.571C1080.83 794.372 1083.5 796.596 1084.73 799.239C1085.2 800.275 1085.5 801.413 1085.64 802.646C1085.8 803.834 1085.74 804.756 1085.45 805.41L1090.38 805.168C1090.4 804.938 1090.45 794.747 1090.5 774.595L1086.94 773.025C1086.13 774.866 1085.09 775.975 1083.8 776.339C1082.5 776.642 1080.72 776.295 1078.47 775.306L1019.41 749.293C1015.12 747.403 1012.28 745.255 1010.91 742.841C1009.48 740.21 1009.17 737.974 1009.98 736.133L1005.04 736.375ZM393.553 747.576C393.55 747.115 393.109 747.18 392.347 747.778C391.781 748.245 391.788 748.28 392.32 748.113C392.65 748.014 393.077 747.913 393.245 747.912C393.411 747.912 393.553 747.743 393.553 747.576ZM1055.17 669.084C1054.31 671.908 1052.87 673.579 1050.85 674.087C1048.84 674.552 1045.91 674.694 1042.05 674.503C1040.11 674.429 1038.06 674.344 1035.9 674.248C1033.69 674.139 1031.81 674.123 1030.24 674.208C1028.69 674.251 1027.85 674.467 1027.74 674.852C1027.56 675.451 1027.47 677.04 1027.48 679.615C1027.5 682.188 1027.61 685.211 1027.82 688.683C1027.98 692.145 1028.19 695.571 1028.42 698.959C1028.67 702.302 1028.94 705.115 1029.22 707.398C1029.48 709.611 1029.73 710.767 1029.99 710.859L1099.12 731.84C1101.56 732.578 1104.18 732.63 1106.99 731.988C1109.75 731.332 1112.4 730.289 1114.93 728.862C1117.44 727.379 1119.58 725.777 1121.35 724.073C1123.13 722.372 1124.22 720.839 1124.64 719.471C1125.02 718.188 1124.92 714.132 1124.33 707.317C1123.77 700.514 1123.55 696.916 1123.67 696.531L1119.88 695.391C1118.69 699.325 1117.41 702.953 1116.03 706.271C1114.65 709.59 1112.29 712.312 1108.94 714.427C1106.69 715.847 1100.72 715.077 1091.01 712.133L1077.87 708.149L1081.47 696.209L1080.21 688.603L1077.06 687.65L1071.45 706.204L1036.76 695.673C1036.12 694.688 1035.93 693.764 1036.19 692.909C1036.56 691.711 1040.63 691.174 1048.39 691.286C1056.13 691.441 1060.21 690.866 1060.59 689.582C1060.68 689.251 1060.29 686.42 1059.44 681.104C1058.56 675.842 1058.02 672.103 1057.81 669.888L1055.17 669.084Z" fill="white"/>
<path d="M509.254 630.863C511.648 629.763 513.547 630.271 515.177 632.406C516.073 633.571 516.101 633.773 516.101 637.303C516.101 640.872 516.002 641.347 513.341 651.188C509.251 666.36 507.523 670.63 500.007 684.471C495.152 693.376 489.732 701.348 481.019 712.388C479.422 714.389 476.927 717.9 475.43 720.102C473.969 722.334 472.339 724.462 471.839 724.864C470.209 726.132 469.008 725.397 469.507 723.429C469.611 722.992 470.914 721.331 472.375 719.699C473.838 718.065 476.327 714.925 477.923 712.723C479.519 710.522 482.42 706.686 484.382 704.218C492.862 693.412 499.843 683.101 502.969 676.73C508.489 665.422 513.678 643.341 512.215 637.504C511.55 634.938 510.819 634.742 507.86 636.176C505.033 637.577 502.341 640.011 499.98 643.313C498.317 645.648 497.649 646.274 497.649 645.54C497.679 645.334 499.201 643.153 501.012 640.643C507.563 631.672 507.624 631.597 509.254 630.863Z" fill="white"/>
<path d="M392.32 669.929C392.852 669.264 393.619 669.594 394.317 670.76C395.015 671.996 395.244 676.537 394.745 679.105C394.479 680.436 393.875 681.101 393.874 680.071C393.874 679.804 393.516 678.865 393.084 677.964C392.186 676.164 391.413 672.166 391.744 671.096C391.843 670.696 392.12 670.162 392.32 669.929Z" fill="white"/>
<path d="M459.966 606.488C460.997 606.488 463.089 608.457 464.12 610.392C465.949 613.762 467.647 622.131 467.98 629.468L468.221 634.298L469.682 632.299C472.073 629.068 473.369 627.833 474.466 627.832C475.829 627.832 476.602 628.363 477.333 629.763C478.431 631.965 478.761 634.37 478.794 640.107C478.827 646.277 478.39 650.284 477.159 655.521C475.73 661.755 472.212 671.885 470.713 674.195C470.182 675.027 469.344 676.426 468.878 677.294C468.013 678.894 467.149 679.233 467.712 677.736C467.878 677.303 468.142 675.802 468.342 674.369C468.541 672.968 469.318 670.294 470.017 668.426C471.347 665.057 473.331 658.887 473.997 656.352C475.294 651.349 475.725 640.207 474.827 635.304C474.528 633.67 474.271 631.799 474.238 631.132C474.205 630.071 474.135 629.937 473.608 630.233C472.411 630.866 468.318 635.001 467.484 636.404C466.586 637.972 466.347 638.11 465.715 637.343C465.383 636.943 465.486 636.702 466.251 636.069L467.189 635.277L467.122 630.971C467.022 622.832 465.789 615.553 463.96 612.484C462.829 610.55 461.026 608.451 460.261 608.151C459.163 607.755 457.367 608.889 455.839 610.888C454.506 612.661 447.822 623.761 446.458 626.396C446.06 627.195 445.6 627.828 445.4 627.832C444.502 627.832 444.863 626.631 446.525 624.263C447.49 622.829 449.883 619.06 451.778 615.892C455.567 609.527 456.669 608.052 458.197 607.118C458.763 606.785 459.567 606.488 459.966 606.488Z" fill="white"/>
<path d="M418.156 663.194C419.054 662.627 420.788 662.823 421.52 663.556C422.051 664.09 422.182 664.527 422.016 665.327C421.714 666.899 418.111 677.816 417.861 677.871C417.762 677.871 417.66 674.629 417.66 670.693C417.66 664.672 417.727 663.465 418.156 663.194Z" fill="white"/>
<path d="M412.608 667.93C413.106 667.198 414.332 667.591 414.404 668.52C414.57 669.917 413.045 676.594 412.541 676.797C412.176 676.931 412.14 676.166 412.206 672.665C412.273 670.299 412.475 668.166 412.608 667.93Z" fill="white"/>
<path d="M444.301 654.756C444.567 654.022 445.691 654.123 446.19 654.89C446.421 655.29 446.298 655.893 445.668 657.224C445.17 658.224 444.635 659.752 444.435 660.686C443.969 663.021 443.43 669.194 443.43 672.263C443.43 673.75 443.305 674.846 443.108 674.866C442.909 674.866 442.773 673.791 442.773 672.357C442.773 670.927 442.637 669.864 442.438 669.862C442.272 669.862 441.778 669.327 441.38 668.694C440.615 667.527 438.016 665.865 436.984 665.864C436.652 665.864 436.516 665.688 436.649 665.488C437.085 664.791 440.601 665.289 441.835 666.253L443.001 667.125L443.497 661.249C443.795 658.03 444.166 655.11 444.301 654.756Z" fill="white"/>
<path d="M405.225 660.39C406.455 658.823 408.713 659.355 409.312 661.356C409.842 663.095 407.409 674.195 406.511 674.195C406.173 674.145 405.249 670.275 405.05 667.822C404.485 661.789 404.493 661.324 405.225 660.39Z" fill="white"/>
<path d="M432.897 666.119C434.953 664.357 435.018 665.094 432.991 667.46C432.193 668.394 431.435 669.63 431.302 670.197C431.169 670.73 430.959 671.264 430.793 671.364C430.327 671.659 429.466 671.158 429.466 670.559C429.471 669.889 431.435 667.352 432.897 666.119Z" fill="white"/>
<path d="M442.907 633.439C444.235 632.707 444.302 632.701 445.065 633.466C445.929 634.333 446.656 637.808 447.088 643.179C447.454 647.681 447.42 652.443 447.021 651.51C446.919 651.204 446.656 648.522 446.458 645.513C446.159 640.476 445.595 637.437 444.797 636.203C444.529 635.807 443.832 636.213 441.313 638.108C434.929 642.909 428.842 650.077 425.781 656.379C424.85 658.247 423.741 660.084 423.275 660.484L422.418 661.222L421.587 660.323C421.122 659.79 420.818 659.188 420.917 658.821C421.116 658.087 417.289 648.977 414.994 644.574C411.868 638.606 408.642 635.304 406.015 635.371C403.256 635.44 400.662 638.542 398.9 643.943C397.17 649.147 396.541 653.354 396.541 659.559C396.535 660.054 395.547 659.883 395.348 659.384C394.818 657.979 397.204 645.482 398.9 640.844C400.363 636.876 402.825 634.142 405.385 633.64C408.146 633.14 411.443 635.205 414.203 639.208C416.432 642.511 420.482 651.552 421.48 655.454L421.855 656.889L423.516 654.515C428.905 646.843 439.482 635.34 442.907 633.439Z" fill="white"/>
<path d="M454.847 646.251C456.376 644.65 457.602 644.944 458.666 647.109C459.531 648.843 462.029 655.542 462.298 656.849C462.664 658.717 461.896 657.714 461.065 655.279C459.701 651.212 457.766 648.183 456.536 648.183C455.736 648.196 454.11 652.255 453.346 656.084C452.749 659.246 452.549 659.851 452.02 659.854C451.487 659.854 451.417 659.553 451.417 657.318C451.417 654.717 452.355 650.252 453.319 648.384C453.585 647.817 454.282 646.851 454.847 646.251Z" fill="white"/>
<path d="M448.16 655.521C448.623 655.522 448.763 655.786 448.763 656.849C448.763 657.575 448.627 658.178 448.495 658.19C448.163 658.19 447.124 655.916 447.356 655.682C447.456 655.582 447.828 655.521 448.16 655.521Z" fill="white"/>
<path d="M439.57 599.217C440.568 598.716 442.01 598.75 443.041 599.284C444.775 600.193 449.294 605.651 451.886 609.949C453.114 611.979 453.278 612.652 452.783 613.45C452.252 614.25 451.217 613.291 449.755 610.593C446.429 604.489 443.367 601.149 441.138 601.149C440.071 601.153 435.848 605.051 433.621 608.084L431.557 610.848L433.393 613.585C436.918 618.855 440.638 627.901 441.004 632.071C441.37 636.238 440.181 634.166 437.587 626.195C435.126 618.59 431.69 612.46 428.863 610.459L427.738 609.681L426.572 610.351C423.945 611.752 416.332 622.091 414.833 626.262C414.401 627.427 413.771 627.83 413.372 627.201C413.272 627.034 413.671 626.13 414.27 625.229C414.836 624.294 415.992 622.457 416.789 621.124C420.049 615.82 424.81 609.95 426.639 608.983C427.535 608.484 427.905 608.415 428.569 608.715C429.3 609.048 429.601 608.914 431.53 607.346C432.694 606.378 434.818 604.25 436.247 602.584C437.669 600.926 439.161 599.398 439.57 599.217Z" fill="white"/>
</g>
</g>
</svg>
