<?xml version="1.0" standalone="no"?>
<!DOCTYPE svg PUBLIC "-//W3C//DTD SVG 20010904//EN"
 "http://www.w3.org/TR/2001/REC-SVG-20010904/DTD/svg10.dtd">
<svg version="1.0" xmlns="http://www.w3.org/2000/svg"
 width="1280.000000pt" height="909.000000pt" viewBox="0 0 1280.000000 909.000000"
 preserveAspectRatio="xMidYMid meet">
<metadata>
Created by potrace 1.15, written by Peter Selinger 2001-2017
</metadata>
<g transform="translate(0.000000,909.000000) scale(0.100000,-0.100000)"
fill="#fff" stroke="none">
<path d="M7534 9078 c-12 -5 -57 -51 -100 -101 -43 -50 -107 -114 -142 -143
-58 -47 -67 -51 -89 -41 -20 9 -31 7 -58 -8 -55 -29 -198 -205 -296 -364 -24
-40 -59 -95 -76 -123 -18 -27 -30 -54 -27 -59 12 -19 31 -7 44 28 45 125 274
435 353 477 l35 20 34 -23 c85 -60 188 -244 262 -472 78 -239 114 -301 103
-176 -11 125 -123 396 -229 554 l-55 82 62 83 c67 91 194 208 226 208 67 0
159 -100 259 -283 44 -81 75 -110 91 -86 15 24 10 44 -27 105 -78 129 -214
293 -266 320 -31 16 -74 17 -104 2z"/>
<path d="M6295 8990 c-35 -13 -90 -83 -112 -140 -12 -30 -48 -125 -79 -210
-31 -85 -58 -157 -61 -159 -2 -3 -34 25 -71 61 -84 83 -252 188 -300 188 -29
0 -33 -3 -30 -22 2 -17 22 -32 76 -60 99 -49 170 -106 237 -189 l57 -70 -35
-87 c-20 -48 -54 -127 -76 -175 -23 -49 -41 -101 -41 -115 0 -22 -11 -33 -51
-57 -79 -47 -121 -100 -152 -198 -16 -46 -33 -125 -39 -173 l-11 -89 -71 71
c-110 109 -189 134 -240 74 -28 -33 -42 -103 -32 -153 10 -46 25 -518 19 -567
l-6 -41 -49 108 c-75 163 -120 273 -116 285 2 6 12 -10 22 -35 10 -26 22 -47
27 -47 14 0 12 6 -40 129 -41 97 -54 144 -80 291 -46 261 -56 370 -43 503 13
140 23 167 57 167 38 0 151 -61 242 -129 95 -71 171 -151 265 -278 37 -51 73
-95 78 -98 46 -29 -83 154 -189 268 -33 35 -106 99 -161 142 -66 51 -97 82
-92 89 5 6 15 32 22 59 7 26 39 90 71 144 55 89 65 114 41 99 -6 -3 -37 -50
-71 -103 -33 -54 -76 -115 -96 -135 l-35 -37 -41 18 c-76 35 -121 -7 -127
-118 -6 -106 16 -360 47 -536 23 -131 26 -155 12 -135 -104 160 -333 418 -489
552 -59 51 -105 97 -103 103 2 5 8 35 12 65 39 255 51 280 144 280 50 0 135
-58 232 -158 51 -53 96 -93 100 -89 25 25 -164 209 -270 262 -72 36 -139 46
-178 25 -32 -18 -56 -81 -68 -185 -7 -55 -15 -117 -18 -137 l-5 -37 -39 19
c-21 11 -56 20 -78 20 -62 0 -96 -36 -125 -137 -23 -76 -24 -90 -15 -180 16
-167 57 -414 83 -498 13 -44 58 -181 100 -305 67 -197 96 -264 230 -532 l153
-306 -114 39 c-62 22 -159 59 -215 84 -114 50 -139 54 -168 25 -26 -26 -25
-40 5 -98 13 -26 56 -120 94 -210 103 -242 283 -511 516 -772 238 -266 451
-405 850 -555 99 -37 183 -70 188 -74 10 -9 -320 -38 -608 -52 -795 -41 -1538
90 -2093 367 -206 103 -335 181 -516 312 -166 120 -235 187 -242 233 l-6 36
73 12 c132 22 250 24 449 7 330 -27 477 -55 850 -163 124 -35 281 -78 350 -94
69 -16 146 -36 173 -45 74 -25 79 -9 6 24 -135 61 -250 103 -479 172 -349 106
-441 126 -705 159 -321 40 -464 51 -660 51 l-164 0 -26 -27 c-29 -32 -40 -78
-31 -130 29 -164 99 -233 393 -393 276 -149 532 -257 873 -368 406 -132 735
-198 1145 -232 66 -5 311 -15 545 -22 329 -9 470 -9 625 1 110 6 214 14 230
17 17 2 1 -7 -35 -21 -189 -75 -495 -247 -573 -322 -51 -50 -112 -140 -148
-218 -63 -139 -101 -298 -189 -795 -58 -328 -112 -546 -171 -686 -22 -55 -48
-116 -56 -137 -9 -20 -19 -37 -24 -37 -4 0 -38 14 -76 31 -260 119 -671 269
-1063 388 -647 195 -1312 300 -2075 327 -477 16 -893 -63 -1227 -233 -87 -44
-118 -66 -163 -115 -75 -83 -98 -147 -93 -253 7 -140 77 -260 269 -459 60 -63
106 -117 102 -119 -5 -3 -44 -20 -88 -37 -134 -53 -293 -140 -330 -181 -59
-66 -79 -115 -80 -194 0 -55 6 -81 25 -120 38 -75 151 -188 265 -264 345 -231
721 -379 1345 -530 682 -165 1217 -232 1995 -250 599 -13 1056 11 1695 89 228
28 230 29 230 51 0 24 1 24 -190 -1 -191 -25 -587 -65 -815 -82 -220 -17
-1063 -17 -1320 0 -620 41 -982 93 -1530 223 -531 126 -860 239 -1155 397
-169 91 -311 226 -380 361 -24 48 -36 138 -26 194 10 52 59 118 128 173 62 49
238 144 266 144 8 0 53 -29 101 -64 253 -187 520 -334 883 -485 772 -321 1315
-441 1999 -441 194 0 237 3 305 20 232 60 323 218 246 432 -23 66 -34 82 -82
123 -134 113 -343 232 -543 306 -632 237 -1310 331 -2082 289 -283 -16 -493
-47 -702 -106 -110 -31 -110 -31 -209 88 -137 164 -204 308 -204 440 0 189 80
294 305 403 239 115 463 149 990 149 496 1 983 -50 1495 -155 526 -109 1250
-343 1694 -548 l86 -40 -35 -66 c-50 -95 -46 -139 17 -171 45 -23 84 -13 193
51 l94 55 118 -66 c142 -81 433 -270 546 -356 295 -222 468 -415 573 -633 64
-134 98 -224 114 -298 12 -60 52 -107 91 -107 13 0 24 -10 31 -30 19 -57 38
-56 128 11 45 33 83 59 85 57 1 -1 7 -37 11 -78 8 -70 20 -89 36 -58 3 7 12
52 18 100 12 84 13 88 47 108 95 56 555 292 697 358 322 149 843 355 1228 487
838 287 1952 483 2633 462 272 -8 449 -45 630 -131 90 -43 155 -101 155 -139
0 -26 -172 -162 -309 -243 -168 -100 -231 -154 -231 -197 1 -73 50 -160 114
-201 47 -31 102 -47 266 -81 220 -44 352 -132 429 -285 36 -73 38 -82 29 -122
-21 -94 -113 -192 -294 -313 -175 -116 -382 -206 -659 -286 -240 -69 -380 -88
-710 -100 -327 -12 -550 -7 -935 22 -292 21 -353 26 -1130 99 -640 59 -833 76
-1045 90 -259 17 -808 40 -977 40 -192 0 -358 13 -591 46 l-177 25 -29 -20
c-46 -33 -91 -90 -91 -114 0 -35 57 -83 130 -110 96 -36 281 -65 495 -76 182
-10 286 -15 990 -43 440 -18 3321 -18 3565 0 241 17 428 39 540 63 283 59 579
148 755 227 182 82 339 212 398 331 28 58 32 75 32 151 0 77 -3 90 -33 146
-72 132 -207 260 -364 346 -77 41 -253 151 -272 169 -11 10 11 30 116 105 172
123 258 269 234 397 -13 70 -107 148 -211 176 -94 25 -491 58 -808 67 -331 10
-656 -13 -1037 -72 -725 -111 -1258 -249 -1917 -493 -642 -237 -1100 -443
-1485 -667 -70 -41 -134 -77 -143 -80 -13 -6 -15 4 -10 77 3 46 10 305 15 574
11 517 18 671 51 1140 21 312 34 438 75 750 l26 200 -20 197 c-12 113 -27 210
-36 225 -13 25 -12 32 10 75 13 26 24 54 24 62 0 21 -59 30 -106 17 -46 -13
-97 -14 -90 -3 8 13 113 34 135 27 27 -8 44 19 39 63 l-5 37 151 -14 151 -14
61 -53 c34 -30 165 -179 291 -331 127 -153 252 -299 280 -324 225 -210 424
-271 788 -240 406 34 689 104 1325 326 146 51 344 116 440 145 212 63 263 91
279 155 18 72 15 83 -26 101 -21 8 -53 18 -71 21 -23 4 -30 9 -23 16 17 17 13
115 -5 153 -39 82 -220 195 -519 324 -588 254 -854 348 -1050 372 -49 6 -93
14 -98 18 -4 3 25 18 65 32 40 15 192 69 338 121 346 124 403 147 726 288 485
211 692 326 886 493 65 56 84 80 118 149 35 68 41 89 36 122 -7 58 -48 91
-122 100 -100 11 -1408 -165 -1437 -194 -23 -23 35 -18 295 23 458 74 596 88
833 89 222 1 286 -9 293 -47 8 -41 -131 -187 -292 -306 -136 -101 -389 -270
-496 -333 -211 -122 -808 -354 -1125 -437 -142 -37 -302 -61 -435 -65 -187 -7
-290 -19 -300 -35 -14 -22 -12 -53 5 -77 14 -20 24 -22 89 -20 61 2 77 -1 95
-17 20 -18 26 -19 67 -8 176 47 568 -38 960 -207 365 -158 586 -292 751 -453
l61 -61 -5 42 c-5 33 -3 41 10 41 15 0 47 -80 47 -116 0 -7 17 -18 38 -24 20
-6 44 -14 52 -16 23 -8 -355 -200 -590 -301 -381 -163 -811 -253 -1210 -253
-408 0 -589 84 -915 425 -102 107 -206 205 -260 246 -49 37 -101 78 -114 92
l-24 26 29 6 c132 26 356 133 551 261 124 82 187 152 216 238 43 127 -2 241
-94 241 -21 0 -39 1 -39 2 0 2 56 66 124 142 68 76 155 181 193 232 220 298
319 471 388 683 48 147 50 156 36 156 -5 0 -17 -24 -27 -52 -26 -80 -85 -194
-202 -388 -168 -281 -244 -382 -416 -558 -115 -118 -188 -179 -268 -225 -30
-18 -48 -35 -50 -50 -2 -18 -19 -28 -95 -54 -51 -18 -93 -29 -93 -24 0 4 12
18 26 32 95 89 251 398 362 719 50 146 159 508 183 610 11 44 55 117 225 370
116 173 253 380 303 460 100 157 160 228 173 207 12 -18 10 -202 -3 -253 -10
-37 -9 -48 6 -70 l17 -26 20 20 c24 23 36 120 37 280 1 86 -1 95 -24 117 -29
30 -32 30 -70 7 -20 -13 -53 -59 -99 -143 -62 -110 -545 -844 -551 -837 -2 2
2 30 8 63 5 33 10 148 10 255 0 171 -3 209 -25 312 -33 147 -69 223 -126 261
-61 41 -97 32 -175 -41 -88 -85 -153 -191 -296 -484 -193 -397 -280 -621 -402
-1042 -79 -270 -101 -393 -106 -594 -4 -122 -2 -177 6 -185 8 -8 11 10 11 70
0 44 9 149 20 234 62 464 223 964 465 1450 106 212 173 315 258 396 54 53 114
92 122 81 1 -2 14 -20 29 -40 33 -45 79 -200 96 -326 25 -183 -16 -596 -70
-702 -11 -21 -16 -41 -11 -44 10 -7 9 -14 -31 -156 -119 -427 -250 -694 -417
-853 -66 -63 -120 -92 -194 -102 -59 -9 -91 -44 -84 -90 l5 -31 -100 -21 c-55
-12 -136 -39 -181 -59 -104 -46 -153 -59 -307 -81 -107 -15 -125 -21 -128 -37
-4 -18 1 -19 74 -12 44 3 117 13 164 22 47 9 128 18 181 20 53 3 121 11 150
19 30 8 122 31 204 50 83 20 248 60 368 90 119 30 226 55 237 55 27 0 26 -28
-2 -77 -73 -129 -312 -286 -524 -345 -68 -19 -105 -22 -269 -22 -176 0 -201 2
-340 32 -82 17 -172 38 -200 47 -27 8 -71 15 -97 15 -40 0 -50 -4 -64 -25 -15
-23 -15 -27 0 -50 28 -43 60 -56 226 -89 88 -18 163 -35 165 -38 3 -2 -32 -17
-78 -33 -124 -43 -137 -51 -137 -86 0 -40 32 -51 143 -47 l89 3 -5 -33 c-3
-18 -18 -57 -32 -87 -16 -31 -33 -91 -40 -142 -8 -48 -26 -137 -40 -197 l-27
-108 13 -422 c13 -447 7 -1290 -11 -1676 -5 -119 -11 -318 -12 -443 l-3 -227
-44 -15 c-59 -20 -70 -19 -64 4 14 52 -70 208 -186 346 -102 120 -336 351
-473 466 -233 195 -543 414 -759 535 -57 32 -106 59 -109 61 -5 4 122 127 235
228 39 34 151 115 250 180 160 105 195 134 315 254 274 275 410 461 566 772
77 155 111 251 125 360 11 81 11 81 -27 186 -35 95 -55 126 -70 110 -3 -3 -12
-35 -19 -72 -8 -38 -21 -75 -29 -84 -8 -9 -28 -55 -44 -102 -84 -240 -198
-495 -275 -616 -51 -80 -186 -240 -274 -324 -49 -46 -169 -140 -269 -209 -262
-182 -373 -269 -506 -398 l-77 -75 15 42 c45 131 90 346 144 691 94 591 142
759 264 912 74 92 221 190 362 238 139 49 339 93 424 95 113 2 108 1 130 38
39 63 16 179 -40 200 -17 6 -30 22 -37 43 -5 19 -9 34 -7 34 2 0 24 -10 49
-22 53 -26 70 -18 29 14 -68 53 -229 205 -274 259 -171 205 -325 560 -371 854
-16 99 -15 318 1 405 14 76 70 204 107 242 l26 27 76 -41 c226 -121 531 -376
663 -556 55 -74 157 -282 198 -402 30 -86 32 -102 27 -180 -7 -116 -42 -212
-117 -323 -60 -88 -71 -122 -48 -145 19 -19 63 -14 91 12 40 37 143 180 171
239 15 29 34 92 43 139 15 79 15 92 1 166 -17 88 -100 287 -168 406 -93 163
-267 360 -499 568 l-84 76 13 33 c23 55 120 145 171 160 53 14 163 14 218 -1
40 -11 155 -90 174 -121 8 -13 -8 -41 -74 -132 -107 -148 -132 -193 -118 -218
11 -22 67 -26 74 -6 2 6 11 37 20 68 19 67 135 265 220 375 156 199 265 250
397 185 56 -27 169 -124 210 -180 48 -66 46 -32 -4 51 -110 187 -260 262 -394
198 -58 -28 -158 -128 -234 -233 l-54 -77 -26 24 c-41 38 -127 93 -167 108
-23 8 -82 13 -146 13 l-107 0 6 147 c7 155 3 178 -36 178 -38 0 -45 -25 -32
-125 6 -51 19 -119 27 -151 9 -35 11 -60 6 -62 -38 -13 -128 -108 -158 -167
-9 -16 -17 -31 -18 -33 -2 -2 -35 21 -74 50 -69 53 -145 88 -187 88 -41 0
-121 -78 -163 -160 -106 -203 -126 -447 -61 -755 40 -191 83 -320 163 -487
100 -210 173 -305 345 -450 40 -33 42 -37 22 -43 -63 -20 -483 53 -640 112
-205 76 -431 207 -577 335 -134 117 -346 363 -455 529 -116 176 -204 380 -228
531 -5 37 -13 75 -17 84 -5 14 -3 16 13 10 10 -4 81 -23 157 -42 245 -61 353
-106 556 -231 145 -90 474 -349 619 -487 28 -28 52 -44 52 -37 0 19 -101 142
-176 217 -126 123 -440 337 -653 444 -84 42 -101 54 -88 62 27 15 20 60 -28
183 -54 135 -77 225 -110 420 -20 119 -45 324 -45 373 0 23 19 12 84 -49 119
-111 312 -384 424 -599 38 -73 75 -164 101 -250 76 -246 121 -356 121 -291 0
96 -88 367 -174 539 -96 192 -491 728 -557 758 -29 14 -64 2 -79 -25 -12 -24
7 -153 75 -501 24 -124 51 -261 58 -304 17 -93 16 -92 -64 43 -153 256 -239
487 -331 886 -27 119 -30 150 -35 360 -4 209 -3 235 14 280 18 46 22 50 49 47
44 -5 141 -53 214 -108 79 -59 343 -324 406 -407 88 -117 154 -240 174 -323
10 -44 33 -117 51 -164 17 -47 44 -128 59 -180 49 -166 54 -172 106 -145 16 8
32 15 35 15 3 0 -1 -37 -9 -82 -21 -123 -4 -286 63 -588 29 -135 57 -261 60
-280 4 -19 13 -38 19 -42 20 -14 53 -8 71 12 17 19 15 24 -43 147 -70 150 -83
188 -117 345 -30 142 -41 315 -26 419 14 101 56 232 85 266 23 26 25 27 67 14
35 -10 66 -35 144 -115 55 -56 122 -134 149 -174 45 -66 77 -95 62 -56 -22 57
-268 343 -332 385 -77 51 -143 1 -164 -123 -19 -107 -26 -111 -41 -27 -9 50
-13 169 -14 365 0 273 1 293 19 313 27 29 71 26 132 -9 68 -38 124 -104 189
-220 59 -106 182 -367 210 -447 18 -50 35 -69 35 -39 0 25 -71 190 -156 360
-58 117 -80 172 -72 177 7 5 12 48 13 126 1 139 26 227 83 293 42 49 156 110
207 110 78 0 186 -88 238 -193 15 -31 32 -57 38 -57 25 0 -48 151 -99 203 -46
47 -119 97 -144 97 -16 0 -17 7 -11 63 10 105 40 202 124 406 85 205 155 348
194 397 l23 29 39 -20 c21 -11 88 -69 150 -130 110 -109 112 -111 184 -260 43
-88 75 -143 77 -132 5 25 -123 282 -197 395 -72 109 -151 196 -203 223 -40 21
-52 22 -83 9z m-145 -4360 c0 -5 -4 -10 -9 -10 -5 0 -18 -3 -28 -6 -16 -5 -16
-4 1 10 23 18 36 20 36 6z m-4020 -2581 c391 -27 735 -92 1070 -201 295 -96
466 -199 590 -354 79 -99 102 -151 103 -228 1 -112 -62 -184 -215 -245 -163
-66 -566 -59 -943 15 -571 112 -1346 401 -1790 668 -163 98 -339 226 -328 237
14 14 232 56 436 84 287 40 723 50 1077 24z m4910 -1789 c577 -20 875 -41
1710 -120 234 -22 531 -49 660 -60 129 -11 258 -24 285 -28 75 -11 -1643 -4
-2002 8 -423 14 -637 33 -903 81 -197 35 -450 102 -450 120 0 12 352 11 700
-1z"/>
<path d="M8094 8841 c-46 -28 -79 -72 -193 -263 -57 -95 -129 -208 -158 -251
-50 -71 -61 -107 -34 -107 6 0 20 19 32 43 41 79 242 412 282 465 46 60 100
94 133 82 23 -9 77 -72 111 -130 55 -92 92 -310 95 -554 l2 -129 -28 -24 c-23
-19 -26 -26 -16 -38 19 -23 26 -19 53 28 25 42 148 166 184 185 16 9 18 5 19
-27 1 -20 9 -76 18 -125 27 -147 14 -481 -25 -631 -20 -76 -80 -261 -120 -362
-21 -56 -44 -136 -50 -178 -6 -43 -14 -88 -19 -101 -17 -45 9 -35 35 13 14 26
39 68 55 93 45 69 151 373 194 560 37 157 50 277 49 462 -1 172 -11 244 -44
310 -22 42 -45 58 -86 58 -33 0 -72 -37 -144 -134 l-44 -60 -7 145 c-10 220
-61 471 -116 572 -31 58 -94 117 -125 117 -12 0 -36 -9 -53 -19z"/>
<path d="M9629 8129 c-49 -22 -51 -24 -248 -293 -55 -76 -101 -142 -101 -147
0 -22 20 -3 70 67 71 99 152 172 237 214 89 43 111 37 131 -40 44 -175 -112
-837 -278 -1176 -94 -191 -304 -500 -559 -824 -59 -74 -146 -189 -194 -255
-48 -66 -123 -160 -167 -209 -44 -49 -83 -99 -86 -112 -15 -59 21 -81 70 -43
15 12 64 76 108 143 45 66 120 171 168 231 262 331 425 570 571 837 226 415
278 543 401 998 80 295 83 309 83 416 0 106 -1 112 -28 147 -49 64 -106 79
-178 46z"/>
<path d="M7634 8052 c-103 -57 -421 -402 -583 -632 l-50 -71 -11 43 c-30 117
-152 388 -219 487 -83 120 -182 182 -265 167 -77 -15 -151 -97 -195 -216 -51
-139 -123 -514 -107 -556 6 -15 36 -20 36 -5 0 186 19 312 71 468 53 162 131
255 214 257 79 2 176 -97 270 -276 69 -132 184 -405 178 -427 -3 -11 6 -29 20
-45 l25 -27 26 22 c14 12 47 67 75 123 92 189 275 404 467 548 76 57 97 69
105 57 24 -37 41 -128 50 -279 6 -91 14 -172 17 -180 12 -28 13 115 2 250 -13
161 -35 265 -61 291 -23 23 -25 23 -65 1z"/>
<path d="M7993 7668 c-17 -18 -38 -47 -46 -64 -29 -56 -57 -190 -57 -268 0
-67 2 -76 18 -76 16 0 22 18 40 113 23 115 72 237 96 237 37 0 95 -91 136
-213 25 -73 48 -103 37 -47 -8 39 -83 240 -109 292 -32 65 -69 74 -115 26z"/>
<path d="M7676 7413 c-4 -10 -15 -98 -24 -195 l-15 -176 -35 26 c-37 29 -143
44 -156 23 -4 -6 0 -11 10 -11 31 0 109 -50 132 -85 12 -19 27 -35 32 -35 6 0
10 -32 10 -75 0 -43 4 -75 10 -75 6 0 10 33 10 78 0 92 16 277 30 347 6 28 22
74 37 104 19 40 23 58 16 70 -15 23 -49 26 -57 4z"/>
<path d="M7768 7385 c-7 -7 24 -75 34 -75 4 0 8 18 8 40 0 32 -4 40 -18 40
-10 0 -21 -2 -24 -5z"/>
<path d="M6501 7244 c-22 -28 -22 -42 -5 -223 6 -74 34 -191 44 -191 27 0 100
333 84 385 -18 60 -86 76 -123 29z"/>
<path d="M6890 7160 c-13 -8 -15 -44 -15 -225 0 -118 3 -215 6 -215 7 0 116
329 125 376 5 24 1 37 -15 53 -22 22 -74 28 -101 11z"/>
<path d="M7333 7072 c-44 -37 -103 -113 -103 -133 0 -18 26 -33 40 -24 5 3 11
19 15 35 4 17 27 54 51 82 61 71 59 93 -3 40z"/>
<path d="M6723 7018 c-4 -7 -10 -71 -12 -142 -2 -105 -1 -128 10 -124 15 5 61
206 56 248 -2 28 -39 40 -54 18z"/>
<path d="M6113 6958 c-6 -7 -14 -23 -17 -35 -10 -32 13 -152 40 -206 13 -27
24 -55 24 -63 0 -31 18 -11 26 29 15 77 8 213 -13 250 -21 35 -44 45 -60 25z"/>
</g>
</svg>
